<?xml version="1.0" encoding="utf-8" standalone="no"?>
<!DOCTYPE svg PUBLIC "-//W3C//DTD SVG 1.1//EN"
  "http://www.w3.org/Graphics/SVG/1.1/DTD/svg11.dtd">
<svg xmlns:xlink="http://www.w3.org/1999/xlink" width="720pt" height="360pt" viewBox="0 0 720 360" xmlns="http://www.w3.org/2000/svg" version="1.1">
 <metadata>
  <rdf:RDF xmlns:dc="http://purl.org/dc/elements/1.1/" xmlns:cc="http://creativecommons.org/ns#" xmlns:rdf="http://www.w3.org/1999/02/22-rdf-syntax-ns#">
   <cc:Work>
    <dc:type rdf:resource="http://purl.org/dc/dcmitype/StillImage"/>
    <dc:date>2023-12-09T20:10:37.508601</dc:date>
    <dc:format>image/svg+xml</dc:format>
    <dc:creator>
     <cc:Agent>
      <dc:title>Matplotlib v3.8.0, https://matplotlib.org/</dc:title>
     </cc:Agent>
    </dc:creator>
   </cc:Work>
  </rdf:RDF>
 </metadata>
 <defs>
  <style type="text/css">*{stroke-linejoin: round; stroke-linecap: butt}</style>
 </defs>
 <g id="figure_1">
  <g id="patch_1">
   <path d="M 0 360 
L 720 360 
L 720 0 
L 0 0 
z
" style="fill: #ffffff"/>
  </g>
  <g id="axes_1">
   <g id="patch_2">
    <path d="M 276 181.8 
C 276 169.587352 273.594375 157.493456 268.920797 146.210441 
C 264.247218 134.927425 257.396577 124.674716 248.760931 116.039069 
C 240.125284 107.403423 229.872575 100.552782 218.589559 95.879203 
C 207.306544 91.205625 195.212648 88.8 183 88.8 
C 170.787352 88.8 158.693456 91.205625 147.410441 95.879203 
C 136.127425 100.552782 125.874716 107.403423 117.239069 116.039069 
C 108.603423 124.674716 101.752782 134.927425 97.079203 146.210441 
C 92.405625 157.493456 90 169.587352 90 181.8 
C 90 194.012648 92.405625 206.106544 97.079203 217.389559 
C 101.752782 228.672575 108.603423 238.925284 117.239069 247.560931 
C 125.874716 256.196577 136.127425 263.047218 147.410441 267.720797 
C 158.693456 272.394375 170.787352 274.8 183 274.8 
C 195.212648 274.8 207.306544 272.394375 218.589559 267.720797 
C 229.872575 263.047218 240.125284 256.196577 248.760931 247.560931 
C 257.396577 238.925284 264.247218 228.672575 268.920797 217.389559 
C 273.594375 206.106544 276 194.012648 276 181.8 
M 183 181.8 
C 183 181.8 183 181.8 183 181.8 
C 183 181.8 183 181.8 183 181.8 
C 183 181.8 183 181.8 183 181.8 
C 183 181.8 183 181.8 183 181.8 
C 183 181.8 183 181.8 183 181.8 
C 183 181.8 183 181.8 183 181.8 
C 183 181.8 183 181.8 183 181.8 
C 183 181.8 183 181.8 183 181.8 
C 183 181.8 183 181.8 183 181.8 
C 183 181.8 183 181.8 183 181.8 
C 183 181.8 183 181.8 183 181.8 
C 183 181.8 183 181.8 183 181.8 
C 183 181.8 183 181.8 183 181.8 
C 183 181.8 183 181.8 183 181.8 
C 183 181.8 183 181.8 183 181.8 
C 183 181.8 183 181.8 183 181.8 
z
" style="fill: #ffffff"/>
   </g>
   <g id="matplotlib.axis_1">
    <g id="xtick_1">
     <g id="line2d_1">
      <path d="M 183 181.8 
L 276 181.8 
" clip-path="url(#pc1072e4bd4)" style="fill: none; stroke: #b0b0b0; stroke-width: 0.8; stroke-linecap: square"/>
     </g>
     <g id="text_1">
      <!-- 0° -->
      <g transform="translate(283.570421 185.785056) scale(0.16 -0.16)">
       <defs>
        <path id="CMR17-30" d="M 2688 2025 
C 2688 2416 2682 3080 2413 3591 
C 2176 4039 1798 4198 1466 4198 
C 1158 4198 768 4058 525 3597 
C 269 3118 243 2524 243 2025 
C 243 1661 250 1106 448 619 
C 723 -39 1216 -128 1466 -128 
C 1760 -128 2208 -7 2470 600 
C 2662 1042 2688 1559 2688 2025 
z
M 1466 -26 
C 1056 -26 813 325 723 812 
C 653 1188 653 1738 653 2096 
C 653 2588 653 2997 736 3387 
C 858 3929 1216 4096 1466 4096 
C 1728 4096 2067 3923 2189 3400 
C 2272 3036 2278 2607 2278 2096 
C 2278 1680 2278 1169 2202 792 
C 2067 95 1690 -26 1466 -26 
z
" transform="scale(0.015625)"/>
        <path id="SFRM3583-b0" d="M 890 4416 
C 544 4371 326 4080 326 3776 
C 326 3453 576 3136 960 3136 
L 1018 3136 
C 1357 3181 1587 3472 1587 3776 
C 1587 4105 1312 4416 947 4416 
L 890 4416 
z
M 525 3737 
L 525 3776 
C 525 4003 723 4204 947 4204 
C 1178 4204 1338 4026 1382 3815 
L 1382 3776 
C 1382 3545 1184 3341 960 3341 
C 730 3341 570 3522 525 3737 
z
" transform="scale(0.015625)"/>
       </defs>
       <use xlink:href="#CMR17-30" transform="scale(0.996264)"/>
       <use xlink:href="#SFRM3583-b0" transform="translate(45.690477 0) scale(0.996264)"/>
      </g>
     </g>
    </g>
    <g id="xtick_2">
     <g id="line2d_2">
      <path d="M 183 181.8 
L 248.760931 116.039069 
" clip-path="url(#pc1072e4bd4)" style="fill: none; stroke: #b0b0b0; stroke-width: 0.8; stroke-linecap: square"/>
     </g>
     <g id="text_2">
      <!-- 45° -->
      <g transform="translate(248.328853 110.12463) scale(0.16 -0.16)">
       <defs>
        <path id="CMR17-34" d="M 2150 4122 
C 2150 4256 2144 4256 2029 4256 
L 128 1254 
L 128 1088 
L 1779 1088 
L 1779 457 
C 1779 224 1766 160 1318 160 
L 1197 160 
L 1197 0 
C 1402 0 1747 0 1965 0 
C 2182 0 2528 0 2733 0 
L 2733 160 
L 2611 160 
C 2163 160 2150 224 2150 457 
L 2150 1088 
L 2803 1088 
L 2803 1254 
L 2150 1254 
L 2150 4122 
z
M 1798 3703 
L 1798 1254 
L 256 1254 
L 1798 3703 
z
" transform="scale(0.015625)"/>
        <path id="CMR17-35" d="M 730 3692 
C 794 3666 1056 3584 1325 3584 
C 1920 3584 2246 3911 2432 4100 
C 2432 4157 2432 4192 2394 4192 
C 2387 4192 2374 4192 2323 4163 
C 2099 4058 1837 3973 1517 3973 
C 1325 3973 1037 3999 723 4139 
C 653 4171 640 4171 634 4171 
C 602 4171 595 4164 595 4037 
L 595 2203 
C 595 2089 595 2057 659 2057 
C 691 2057 704 2070 736 2114 
C 941 2401 1222 2522 1542 2522 
C 1766 2522 2246 2382 2246 1289 
C 2246 1085 2246 715 2054 421 
C 1894 159 1645 25 1370 25 
C 947 25 518 320 403 814 
C 429 807 480 795 506 795 
C 589 795 749 840 749 1038 
C 749 1210 627 1280 506 1280 
C 358 1280 262 1190 262 1011 
C 262 454 704 -128 1382 -128 
C 2042 -128 2669 440 2669 1264 
C 2669 2030 2170 2624 1549 2624 
C 1222 2624 947 2503 730 2274 
L 730 3692 
z
" transform="scale(0.015625)"/>
       </defs>
       <use xlink:href="#CMR17-34" transform="scale(0.996264)"/>
       <use xlink:href="#CMR17-35" transform="translate(45.690477 0) scale(0.996264)"/>
       <use xlink:href="#SFRM3583-b0" transform="translate(91.380954 0) scale(0.996264)"/>
      </g>
     </g>
    </g>
    <g id="xtick_3">
     <g id="line2d_3">
      <path d="M 183 181.8 
L 183 88.8 
" clip-path="url(#pc1072e4bd4)" style="fill: none; stroke: #b0b0b0; stroke-width: 0.8; stroke-linecap: square"/>
     </g>
     <g id="text_3">
      <!-- 90° -->
      <g transform="translate(172.668428 78.785056) scale(0.16 -0.16)">
       <defs>
        <path id="CMR17-39" d="M 2253 1864 
C 2253 464 1670 31 1190 31 
C 1043 31 685 31 538 294 
C 704 268 826 357 826 518 
C 826 692 685 749 595 749 
C 538 749 365 723 365 506 
C 365 71 742 -128 1203 -128 
C 1939 -128 2688 674 2688 2073 
C 2688 3817 1971 4179 1485 4179 
C 851 4179 243 3628 243 2778 
C 243 1991 762 1408 1414 1408 
C 1952 1408 2189 1903 2253 2112 
L 2253 1864 
z
M 1427 1510 
C 1254 1510 1011 1542 813 1922 
C 678 2169 678 2461 678 2771 
C 678 3146 678 3405 858 3684 
C 947 3817 1114 4032 1485 4032 
C 2240 4032 2240 2885 2240 2632 
C 2240 2182 2035 1510 1427 1510 
z
" transform="scale(0.015625)"/>
       </defs>
       <use xlink:href="#CMR17-39" transform="scale(0.996264)"/>
       <use xlink:href="#CMR17-30" transform="translate(45.690477 0) scale(0.996264)"/>
       <use xlink:href="#SFRM3583-b0" transform="translate(91.380954 0) scale(0.996264)"/>
      </g>
     </g>
    </g>
    <g id="xtick_4">
     <g id="line2d_4">
      <path d="M 183 181.8 
L 117.239069 116.039069 
" clip-path="url(#pc1072e4bd4)" style="fill: none; stroke: #b0b0b0; stroke-width: 0.8; stroke-linecap: square"/>
     </g>
     <g id="text_4">
      <!-- 135° -->
      <g transform="translate(93.106009 110.12463) scale(0.16 -0.16)">
       <defs>
        <path id="CMR17-31" d="M 1702 4058 
C 1702 4192 1696 4192 1606 4192 
C 1357 3916 979 3827 621 3827 
C 602 3827 570 3827 563 3808 
C 557 3795 557 3782 557 3648 
C 755 3648 1088 3686 1344 3839 
L 1344 461 
C 1344 236 1331 160 781 160 
L 589 160 
L 589 0 
C 896 0 1216 0 1523 0 
C 1830 0 2150 0 2458 0 
L 2458 160 
L 2266 160 
C 1715 160 1702 230 1702 458 
L 1702 4058 
z
" transform="scale(0.015625)"/>
        <path id="CMR17-33" d="M 1414 2157 
C 1984 2157 2234 1662 2234 1090 
C 2234 320 1824 25 1453 25 
C 1114 25 563 194 390 693 
C 422 680 454 680 486 680 
C 640 680 755 782 755 948 
C 755 1133 614 1216 486 1216 
C 378 1216 211 1165 211 926 
C 211 335 787 -128 1466 -128 
C 2176 -128 2720 430 2720 1085 
C 2720 1707 2208 2157 1600 2227 
C 2086 2328 2554 2756 2554 3329 
C 2554 3820 2048 4179 1472 4179 
C 890 4179 378 3829 378 3329 
C 378 3110 544 3072 627 3072 
C 762 3072 877 3155 877 3321 
C 877 3486 762 3569 627 3569 
C 602 3569 570 3569 544 3557 
C 730 3959 1235 4032 1459 4032 
C 1683 4032 2106 3925 2106 3320 
C 2106 3143 2080 2828 1862 2550 
C 1670 2304 1453 2304 1242 2284 
C 1210 2284 1062 2269 1037 2269 
C 992 2263 966 2257 966 2208 
C 966 2163 973 2157 1101 2157 
L 1414 2157 
z
" transform="scale(0.015625)"/>
       </defs>
       <use xlink:href="#CMR17-31" transform="scale(0.996264)"/>
       <use xlink:href="#CMR17-33" transform="translate(45.690477 0) scale(0.996264)"/>
       <use xlink:href="#CMR17-35" transform="translate(91.380954 0) scale(0.996264)"/>
       <use xlink:href="#SFRM3583-b0" transform="translate(137.071431 0) scale(0.996264)"/>
      </g>
     </g>
    </g>
    <g id="xtick_5">
     <g id="line2d_5">
      <path d="M 183 181.8 
L 90 181.8 
" clip-path="url(#pc1072e4bd4)" style="fill: none; stroke: #b0b0b0; stroke-width: 0.8; stroke-linecap: square"/>
     </g>
     <g id="text_5">
      <!-- 180° -->
      <g transform="translate(61.766434 185.785056) scale(0.16 -0.16)">
       <defs>
        <path id="CMR17-38" d="M 1741 2264 
C 2144 2467 2554 2773 2554 3263 
C 2554 3841 1990 4179 1472 4179 
C 890 4179 378 3759 378 3180 
C 378 3021 416 2747 666 2505 
C 730 2442 998 2251 1171 2130 
C 883 1983 211 1634 211 934 
C 211 279 838 -128 1459 -128 
C 2144 -128 2720 362 2720 1010 
C 2720 1590 2330 1857 2074 2029 
L 1741 2264 
z
M 902 2822 
C 851 2854 595 3051 595 3351 
C 595 3739 998 4032 1459 4032 
C 1965 4032 2336 3676 2336 3262 
C 2336 2669 1670 2331 1638 2331 
C 1632 2331 1626 2331 1574 2370 
L 902 2822 
z
M 2080 1519 
C 2176 1449 2483 1240 2483 851 
C 2483 381 2010 25 1472 25 
C 890 25 448 438 448 940 
C 448 1443 838 1862 1280 2060 
L 2080 1519 
z
" transform="scale(0.015625)"/>
       </defs>
       <use xlink:href="#CMR17-31" transform="scale(0.996264)"/>
       <use xlink:href="#CMR17-38" transform="translate(45.690477 0) scale(0.996264)"/>
       <use xlink:href="#CMR17-30" transform="translate(91.380954 0) scale(0.996264)"/>
       <use xlink:href="#SFRM3583-b0" transform="translate(137.071431 0) scale(0.996264)"/>
      </g>
     </g>
    </g>
    <g id="xtick_6">
     <g id="line2d_6">
      <path d="M 183 181.8 
L 117.239069 247.560931 
" clip-path="url(#pc1072e4bd4)" style="fill: none; stroke: #b0b0b0; stroke-width: 0.8; stroke-linecap: square"/>
     </g>
     <g id="text_6">
      <!-- 225° -->
      <g transform="translate(93.106009 261.445482) scale(0.16 -0.16)">
       <defs>
        <path id="CMR17-32" d="M 2669 989 
L 2554 989 
C 2490 536 2438 459 2413 420 
C 2381 369 1920 369 1830 369 
L 602 369 
C 832 619 1280 1072 1824 1597 
C 2214 1967 2669 2402 2669 3035 
C 2669 3790 2067 4224 1395 4224 
C 691 4224 262 3604 262 3030 
C 262 2780 448 2748 525 2748 
C 589 2748 781 2787 781 3010 
C 781 3207 614 3264 525 3264 
C 486 3264 448 3258 422 3245 
C 544 3790 915 4058 1306 4058 
C 1862 4058 2227 3617 2227 3035 
C 2227 2479 1901 2000 1536 1584 
L 262 146 
L 262 0 
L 2515 0 
L 2669 989 
z
" transform="scale(0.015625)"/>
       </defs>
       <use xlink:href="#CMR17-32" transform="scale(0.996264)"/>
       <use xlink:href="#CMR17-32" transform="translate(45.690477 0) scale(0.996264)"/>
       <use xlink:href="#CMR17-35" transform="translate(91.380954 0) scale(0.996264)"/>
       <use xlink:href="#SFRM3583-b0" transform="translate(137.071431 0) scale(0.996264)"/>
      </g>
     </g>
    </g>
    <g id="xtick_7">
     <g id="line2d_7">
      <path d="M 183 181.8 
L 183 274.8 
" clip-path="url(#pc1072e4bd4)" style="fill: none; stroke: #b0b0b0; stroke-width: 0.8; stroke-linecap: square"/>
     </g>
     <g id="text_7">
      <!-- 270° -->
      <g transform="translate(168.766434 292.785056) scale(0.16 -0.16)">
       <defs>
        <path id="CMR17-37" d="M 2886 3941 
L 2886 4081 
L 1382 4081 
C 634 4081 621 4165 595 4288 
L 480 4288 
L 294 3094 
L 410 3094 
C 429 3215 474 3540 550 3661 
C 589 3712 1062 3712 1171 3712 
L 2579 3712 
L 1869 2661 
C 1395 1954 1069 999 1069 165 
C 1069 89 1069 -128 1299 -128 
C 1530 -128 1530 89 1530 171 
L 1530 465 
C 1530 1508 1709 2196 2003 2636 
L 2886 3941 
z
" transform="scale(0.015625)"/>
       </defs>
       <use xlink:href="#CMR17-32" transform="scale(0.996264)"/>
       <use xlink:href="#CMR17-37" transform="translate(45.690477 0) scale(0.996264)"/>
       <use xlink:href="#CMR17-30" transform="translate(91.380954 0) scale(0.996264)"/>
       <use xlink:href="#SFRM3583-b0" transform="translate(137.071431 0) scale(0.996264)"/>
      </g>
     </g>
    </g>
    <g id="xtick_8">
     <g id="line2d_8">
      <path d="M 183 181.8 
L 248.760931 247.560931 
" clip-path="url(#pc1072e4bd4)" style="fill: none; stroke: #b0b0b0; stroke-width: 0.8; stroke-linecap: square"/>
     </g>
     <g id="text_8">
      <!-- 315° -->
      <g transform="translate(244.42686 261.445482) scale(0.16 -0.16)">
       <use xlink:href="#CMR17-33" transform="scale(0.996264)"/>
       <use xlink:href="#CMR17-31" transform="translate(45.690477 0) scale(0.996264)"/>
       <use xlink:href="#CMR17-35" transform="translate(91.380954 0) scale(0.996264)"/>
       <use xlink:href="#SFRM3583-b0" transform="translate(137.071431 0) scale(0.996264)"/>
      </g>
     </g>
    </g>
   </g>
   <g id="matplotlib.axis_2">
    <g id="ytick_1">
     <g id="line2d_9">
      <path d="M 214 181.8 
C 214 177.729117 213.198125 173.697819 211.640266 169.936814 
C 210.082406 166.175808 207.798859 162.758239 204.92031 159.87969 
C 202.041761 157.001141 198.624192 154.717594 194.863186 153.159734 
C 191.102181 151.601875 187.070883 150.8 183 150.8 
C 178.929117 150.8 174.897819 151.601875 171.136814 153.159734 
C 167.375808 154.717594 163.958239 157.001141 161.07969 159.87969 
C 158.201141 162.758239 155.917594 166.175808 154.359734 169.936814 
C 152.801875 173.697819 152 177.729117 152 181.8 
C 152 185.870883 152.801875 189.902181 154.359734 193.663186 
C 155.917594 197.424192 158.201141 200.841761 161.07969 203.72031 
C 163.958239 206.598859 167.375808 208.882406 171.136814 210.440266 
C 174.897819 211.998125 178.929117 212.8 183 212.8 
C 187.070883 212.8 191.102181 211.998125 194.863186 210.440266 
C 198.624192 208.882406 202.041761 206.598859 204.92031 203.72031 
C 207.798859 200.841761 210.082406 197.424192 211.640266 193.663186 
C 213.198125 189.902181 214 185.870883 214 181.8 
" clip-path="url(#pc1072e4bd4)" style="fill: none; stroke: #b0b0b0; stroke-width: 0.8; stroke-linecap: square"/>
     </g>
    </g>
    <g id="ytick_2">
     <g id="line2d_10">
      <path d="M 245 181.8 
C 245 173.658235 243.39625 165.595638 240.280531 158.073627 
C 237.164812 150.551617 232.597718 143.716477 226.84062 137.95938 
C 221.083523 132.202282 214.248383 127.635188 206.726373 124.519469 
C 199.204362 121.40375 191.141765 119.8 183 119.8 
C 174.858235 119.8 166.795638 121.40375 159.273627 124.519469 
C 151.751617 127.635188 144.916477 132.202282 139.15938 137.95938 
C 133.402282 143.716477 128.835188 150.551617 125.719469 158.073627 
C 122.60375 165.595638 121 173.658235 121 181.8 
C 121 189.941765 122.60375 198.004362 125.719469 205.526373 
C 128.835188 213.048383 133.402282 219.883523 139.15938 225.64062 
C 144.916477 231.397718 151.751617 235.964812 159.273627 239.080531 
C 166.795638 242.19625 174.858235 243.8 183 243.8 
C 191.141765 243.8 199.204362 242.19625 206.726373 239.080531 
C 214.248383 235.964812 221.083523 231.397718 226.84062 225.64062 
C 232.597718 219.883523 237.164812 213.048383 240.280531 205.526373 
C 243.39625 198.004362 245 189.941765 245 181.8 
" clip-path="url(#pc1072e4bd4)" style="fill: none; stroke: #b0b0b0; stroke-width: 0.8; stroke-linecap: square"/>
     </g>
    </g>
    <g id="ytick_3">
     <g id="line2d_11">
      <path d="M 276 181.8 
C 276 169.587352 273.594375 157.493456 268.920797 146.210441 
C 264.247218 134.927425 257.396577 124.674716 248.760931 116.039069 
C 240.125284 107.403423 229.872575 100.552782 218.589559 95.879203 
C 207.306544 91.205625 195.212648 88.8 183 88.8 
C 170.787352 88.8 158.693456 91.205625 147.410441 95.879203 
C 136.127425 100.552782 125.874716 107.403423 117.239069 116.039069 
C 108.603423 124.674716 101.752782 134.927425 97.079203 146.210441 
C 92.405625 157.493456 90 169.587352 90 181.8 
C 90 194.012648 92.405625 206.106544 97.079203 217.389559 
C 101.752782 228.672575 108.603423 238.925284 117.239069 247.560931 
C 125.874716 256.196577 136.127425 263.047218 147.410441 267.720797 
C 158.693456 272.394375 170.787352 274.8 183 274.8 
C 195.212648 274.8 207.306544 272.394375 218.589559 267.720797 
C 229.872575 263.047218 240.125284 256.196577 248.760931 247.560931 
C 257.396577 238.925284 264.247218 228.672575 268.920797 217.389559 
C 273.594375 206.106544 276 194.012648 276 181.8 
" clip-path="url(#pc1072e4bd4)" style="fill: none; stroke: #b0b0b0; stroke-width: 0.8; stroke-linecap: square"/>
     </g>
    </g>
   </g>
   <g id="line2d_12">
    <path d="M 183 166.3 
L 182.754078 166.301951 
L 182.508217 166.307804 
L 182.26248 166.317556 
L 182.016929 166.331207 
L 181.771626 166.348751 
L 181.526631 166.370185 
L 181.282008 166.395504 
L 181.037817 166.4247 
L 180.79412 166.457768 
L 180.550978 166.494697 
L 180.308453 166.53548 
L 180.066606 166.580105 
L 179.825497 166.628562 
L 179.585187 166.680838 
L 179.345736 166.736921 
L 179.107206 166.796795 
L 178.869656 166.860447 
L 178.633145 166.927859 
L 178.397734 166.999015 
L 178.163482 167.073898 
L 177.930447 167.152487 
L 177.698688 167.234764 
L 177.468264 167.320708 
L 177.239232 167.410297 
L 177.011651 167.503508 
L 176.785577 167.600319 
L 176.561067 167.700704 
L 176.338179 167.804639 
L 176.116968 167.912096 
L 175.897489 168.023051 
L 175.679798 168.137473 
L 175.463951 168.255335 
L 175.25 168.376606 
L 175.038 168.501257 
L 174.828005 168.629256 
L 174.620067 168.76057 
L 174.414239 168.895167 
L 174.210572 169.033013 
L 174.009118 169.174073 
L 173.809927 169.318311 
L 173.61305 169.465691 
L 173.418536 169.616177 
L 173.226434 169.76973 
L 173.036792 169.926311 
L 172.849659 170.085882 
L 172.66508 170.248401 
L 172.483104 170.413829 
L 172.303775 170.582122 
L 172.127139 170.75324 
L 171.95324 170.927139 
L 171.782122 171.103775 
L 171.613829 171.283104 
L 171.448401 171.46508 
L 171.285882 171.649659 
L 171.126311 171.836792 
L 170.96973 172.026434 
L 170.816177 172.218536 
L 170.665691 172.41305 
L 170.518311 172.609927 
L 170.374073 172.809118 
L 170.233013 173.010572 
L 170.095167 173.214239 
L 169.96057 173.420067 
L 169.829256 173.628005 
L 169.701257 173.838 
L 169.576606 174.05 
L 169.455335 174.263951 
L 169.337473 174.479798 
L 169.223051 174.697489 
L 169.112096 174.916968 
L 169.004639 175.138179 
L 168.900704 175.361067 
L 168.800319 175.585577 
L 168.703508 175.811651 
L 168.610297 176.039232 
L 168.520708 176.268264 
L 168.434764 176.498688 
L 168.352487 176.730447 
L 168.273898 176.963482 
L 168.199015 177.197734 
L 168.127859 177.433145 
L 168.060447 177.669656 
L 167.996795 177.907206 
L 167.936921 178.145736 
L 167.880838 178.385187 
L 167.828562 178.625497 
L 167.780105 178.866606 
L 167.73548 179.108453 
L 167.694697 179.350978 
L 167.657768 179.59412 
L 167.6247 179.837817 
L 167.595504 180.082008 
L 167.570185 180.326631 
L 167.548751 180.571626 
L 167.531207 180.816929 
L 167.517556 181.06248 
L 167.507804 181.308217 
L 167.501951 181.554078 
L 167.5 181.8 
" clip-path="url(#pc1072e4bd4)" style="fill: none; stroke: #ff0000; stroke-width: 2; stroke-linecap: square"/>
   </g>
   <g id="patch_3">
    <path d="M 276 181.8 
C 276 169.587352 273.594375 157.493456 268.920797 146.210441 
C 264.247218 134.927425 257.396577 124.674716 248.760931 116.039069 
C 240.125284 107.403423 229.872575 100.552782 218.589559 95.879203 
C 207.306544 91.205625 195.212648 88.8 183 88.8 
C 170.787352 88.8 158.693456 91.205625 147.410441 95.879203 
C 136.127425 100.552782 125.874716 107.403423 117.239069 116.039069 
C 108.603423 124.674716 101.752782 134.927425 97.079203 146.210441 
C 92.405625 157.493456 90 169.587352 90 181.8 
C 90 194.012648 92.405625 206.106544 97.079203 217.389559 
C 101.752782 228.672575 108.603423 238.925284 117.239069 247.560931 
C 125.874716 256.196577 136.127425 263.047218 147.410441 267.720797 
C 158.693456 272.394375 170.787352 274.8 183 274.8 
C 195.212648 274.8 207.306544 272.394375 218.589559 267.720797 
C 229.872575 263.047218 240.125284 256.196577 248.760931 247.560931 
C 257.396577 238.925284 264.247218 228.672575 268.920797 217.389559 
C 273.594375 206.106544 276 194.012648 276 181.8 
" style="fill: none; stroke: #000000; stroke-width: 0.8; stroke-linejoin: miter; stroke-linecap: square"/>
   </g>
  </g>
  <g id="axes_2">
   <g id="patch_4">
    <path d="M 462 320.4 
L 648 320.4 
L 648 43.2 
L 462 43.2 
z
" style="fill: #ffffff"/>
   </g>
   <g id="matplotlib.axis_3">
    <g id="xtick_9">
     <g id="line2d_13">
      <path d="M 462 320.4 
L 462 43.2 
" clip-path="url(#pa1cb9f7914)" style="fill: none; stroke: #b0b0b0; stroke-width: 0.8; stroke-linecap: square"/>
     </g>
     <g id="line2d_14">
      <defs>
       <path id="me8e53f690e" d="M 0 0 
L 0 3.5 
" style="stroke: #000000; stroke-width: 0.8"/>
      </defs>
      <g>
       <use xlink:href="#me8e53f690e" x="462" y="320.4" style="stroke: #000000; stroke-width: 0.8"/>
      </g>
     </g>
     <g id="text_9">
      <!-- $0$ -->
      <g transform="translate(458.098006 338.469588) scale(0.16 -0.16)">
       <use xlink:href="#CMR17-30" transform="scale(0.996264)"/>
      </g>
     </g>
    </g>
    <g id="xtick_10">
     <g id="line2d_15">
      <path d="M 508.5 320.4 
L 508.5 43.2 
" clip-path="url(#pa1cb9f7914)" style="fill: none; stroke: #b0b0b0; stroke-width: 0.8; stroke-linecap: square"/>
     </g>
     <g id="line2d_16">
      <g>
       <use xlink:href="#me8e53f690e" x="508.5" y="320.4" style="stroke: #000000; stroke-width: 0.8"/>
      </g>
     </g>
     <g id="text_10">
      <!-- $\pi/2$ -->
      <g transform="translate(495.983164 339.355168) scale(0.16 -0.16)">
       <defs>
        <path id="CMMI12-19" d="M 1658 2408 
L 2381 2408 
C 2208 1692 2099 1226 2099 716 
C 2099 626 2099 -64 2362 -64 
C 2496 -64 2611 57 2611 166 
C 2611 197 2611 210 2566 306 
C 2394 747 2394 1296 2394 1341 
C 2394 1379 2394 1832 2528 2408 
L 3245 2408 
C 3328 2408 3539 2408 3539 2612 
C 3539 2752 3418 2752 3302 2752 
L 1197 2752 
C 1050 2752 832 2752 538 2440 
C 371 2254 166 1916 166 1878 
C 166 1840 198 1827 237 1827 
C 282 1827 288 1846 320 1884 
C 653 2408 986 2408 1146 2408 
L 1510 2408 
C 1370 1929 1210 1373 685 256 
C 634 154 634 140 634 102 
C 634 -32 749 -64 806 -64 
C 992 -64 1043 102 1120 370 
C 1222 696 1222 709 1286 964 
L 1658 2408 
z
" transform="scale(0.015625)"/>
        <path id="CMMI12-3d" d="M 2746 4562 
C 2746 4569 2784 4666 2784 4678 
C 2784 4755 2720 4800 2669 4800 
C 2637 4800 2579 4800 2528 4659 
L 384 -1363 
C 384 -1370 346 -1465 346 -1478 
C 346 -1555 410 -1600 461 -1600 
C 499 -1600 557 -1593 602 -1459 
L 2746 4562 
z
" transform="scale(0.015625)"/>
       </defs>
       <use xlink:href="#CMMI12-19" transform="scale(0.996264)"/>
       <use xlink:href="#CMMI12-3d" transform="translate(58.910601 0) scale(0.996264)"/>
       <use xlink:href="#CMR17-32" transform="translate(107.68552 0) scale(0.996264)"/>
      </g>
     </g>
    </g>
    <g id="xtick_11">
     <g id="line2d_17">
      <path d="M 555 320.4 
L 555 43.2 
" clip-path="url(#pa1cb9f7914)" style="fill: none; stroke: #b0b0b0; stroke-width: 0.8; stroke-linecap: square"/>
     </g>
     <g id="line2d_18">
      <g>
       <use xlink:href="#me8e53f690e" x="555" y="320.4" style="stroke: #000000; stroke-width: 0.8"/>
      </g>
     </g>
     <g id="text_11">
      <!-- $\pi$ -->
      <g transform="translate(550.573119 338.469588) scale(0.16 -0.16)">
       <use xlink:href="#CMMI12-19" transform="scale(0.996264)"/>
      </g>
     </g>
    </g>
    <g id="xtick_12">
     <g id="line2d_19">
      <path d="M 601.5 320.4 
L 601.5 43.2 
" clip-path="url(#pa1cb9f7914)" style="fill: none; stroke: #b0b0b0; stroke-width: 0.8; stroke-linecap: square"/>
     </g>
     <g id="line2d_20">
      <g>
       <use xlink:href="#me8e53f690e" x="601.5" y="320.4" style="stroke: #000000; stroke-width: 0.8"/>
      </g>
     </g>
     <g id="text_12">
      <!-- $3\pi/2$ -->
      <g transform="translate(585.081171 339.355168) scale(0.16 -0.16)">
       <use xlink:href="#CMR17-33" transform="scale(0.996264)"/>
       <use xlink:href="#CMMI12-19" transform="translate(45.690477 0) scale(0.996264)"/>
       <use xlink:href="#CMMI12-3d" transform="translate(104.601078 0) scale(0.996264)"/>
       <use xlink:href="#CMR17-32" transform="translate(153.375997 0) scale(0.996264)"/>
      </g>
     </g>
    </g>
    <g id="text_13">
     <!-- $\phi$ -->
     <g transform="translate(550.381265 358.409812) scale(0.16 -0.16)">
      <defs>
       <path id="CMMI12-1e" d="M 2752 4390 
C 2752 4448 2707 4448 2688 4448 
C 2630 4448 2624 4435 2598 4326 
L 2253 2939 
C 2234 2856 2227 2849 2221 2843 
C 2214 2830 2170 2824 2157 2824 
C 1107 2734 301 1864 301 1057 
C 301 361 832 -64 1498 -64 
C 1446 -261 1402 -463 1350 -659 
C 1261 -995 1210 -1204 1210 -1229 
C 1210 -1241 1210 -1280 1274 -1280 
C 1293 -1280 1318 -1280 1331 -1254 
C 1344 -1241 1382 -1089 1408 -1008 
L 1645 -64 
C 2739 -64 3571 854 3571 1680 
C 3571 2343 3085 2816 2374 2816 
L 2752 4390 
z
M 2336 2701 
C 2758 2701 3181 2463 3181 1828 
C 3181 1097 2675 128 1677 50 
L 2336 2701 
z
M 1530 50 
C 1216 50 691 220 691 938 
C 691 1761 1274 2676 2195 2676 
L 1530 50 
z
" transform="scale(0.015625)"/>
      </defs>
      <use xlink:href="#CMMI12-1e" transform="scale(0.996264)"/>
     </g>
    </g>
   </g>
   <g id="matplotlib.axis_4">
    <g id="ytick_4">
     <g id="line2d_21">
      <path d="M 462 320.4 
L 648 320.4 
" clip-path="url(#pa1cb9f7914)" style="fill: none; stroke: #b0b0b0; stroke-width: 0.8; stroke-linecap: square"/>
     </g>
     <g id="line2d_22">
      <defs>
       <path id="m2dce6e6fb2" d="M 0 0 
L -3.5 0 
" style="stroke: #000000; stroke-width: 0.8"/>
      </defs>
      <g>
       <use xlink:href="#m2dce6e6fb2" x="462" y="320.4" style="stroke: #000000; stroke-width: 0.8"/>
      </g>
     </g>
     <g id="text_14">
      <!-- $\mathdefault{0.0}$ -->
      <g transform="translate(435.056478 325.934794) scale(0.16 -0.16)">
       <defs>
        <path id="CMMI12-3a" d="M 1178 307 
C 1178 492 1024 619 870 619 
C 685 619 557 466 557 313 
C 557 128 710 0 864 0 
C 1050 0 1178 153 1178 307 
z
" transform="scale(0.015625)"/>
       </defs>
       <use xlink:href="#CMR17-30" transform="scale(0.996264)"/>
       <use xlink:href="#CMMI12-3a" transform="translate(45.690477 0) scale(0.996264)"/>
       <use xlink:href="#CMR17-30" transform="translate(72.787654 0) scale(0.996264)"/>
      </g>
     </g>
    </g>
    <g id="ytick_5">
     <g id="line2d_23">
      <path d="M 462 274.2 
L 648 274.2 
" clip-path="url(#pa1cb9f7914)" style="fill: none; stroke: #b0b0b0; stroke-width: 0.8; stroke-linecap: square"/>
     </g>
     <g id="line2d_24">
      <g>
       <use xlink:href="#m2dce6e6fb2" x="462" y="274.2" style="stroke: #000000; stroke-width: 0.8"/>
      </g>
     </g>
     <g id="text_15">
      <!-- $\mathdefault{0.5}$ -->
      <g transform="translate(435.056478 279.734794) scale(0.16 -0.16)">
       <use xlink:href="#CMR17-30" transform="scale(0.996264)"/>
       <use xlink:href="#CMMI12-3a" transform="translate(45.690477 0) scale(0.996264)"/>
       <use xlink:href="#CMR17-35" transform="translate(72.787654 0) scale(0.996264)"/>
      </g>
     </g>
    </g>
    <g id="ytick_6">
     <g id="line2d_25">
      <path d="M 462 228 
L 648 228 
" clip-path="url(#pa1cb9f7914)" style="fill: none; stroke: #b0b0b0; stroke-width: 0.8; stroke-linecap: square"/>
     </g>
     <g id="line2d_26">
      <g>
       <use xlink:href="#m2dce6e6fb2" x="462" y="228" style="stroke: #000000; stroke-width: 0.8"/>
      </g>
     </g>
     <g id="text_16">
      <!-- $\mathdefault{1.0}$ -->
      <g transform="translate(435.056478 233.534794) scale(0.16 -0.16)">
       <use xlink:href="#CMR17-31" transform="scale(0.996264)"/>
       <use xlink:href="#CMMI12-3a" transform="translate(45.690477 0) scale(0.996264)"/>
       <use xlink:href="#CMR17-30" transform="translate(72.787654 0) scale(0.996264)"/>
      </g>
     </g>
    </g>
    <g id="ytick_7">
     <g id="line2d_27">
      <path d="M 462 181.8 
L 648 181.8 
" clip-path="url(#pa1cb9f7914)" style="fill: none; stroke: #b0b0b0; stroke-width: 0.8; stroke-linecap: square"/>
     </g>
     <g id="line2d_28">
      <g>
       <use xlink:href="#m2dce6e6fb2" x="462" y="181.8" style="stroke: #000000; stroke-width: 0.8"/>
      </g>
     </g>
     <g id="text_17">
      <!-- $\mathdefault{1.5}$ -->
      <g transform="translate(435.056478 187.334794) scale(0.16 -0.16)">
       <use xlink:href="#CMR17-31" transform="scale(0.996264)"/>
       <use xlink:href="#CMMI12-3a" transform="translate(45.690477 0) scale(0.996264)"/>
       <use xlink:href="#CMR17-35" transform="translate(72.787654 0) scale(0.996264)"/>
      </g>
     </g>
    </g>
    <g id="ytick_8">
     <g id="line2d_29">
      <path d="M 462 135.6 
L 648 135.6 
" clip-path="url(#pa1cb9f7914)" style="fill: none; stroke: #b0b0b0; stroke-width: 0.8; stroke-linecap: square"/>
     </g>
     <g id="line2d_30">
      <g>
       <use xlink:href="#m2dce6e6fb2" x="462" y="135.6" style="stroke: #000000; stroke-width: 0.8"/>
      </g>
     </g>
     <g id="text_18">
      <!-- $\mathdefault{2.0}$ -->
      <g transform="translate(435.056478 141.134794) scale(0.16 -0.16)">
       <use xlink:href="#CMR17-32" transform="scale(0.996264)"/>
       <use xlink:href="#CMMI12-3a" transform="translate(45.690477 0) scale(0.996264)"/>
       <use xlink:href="#CMR17-30" transform="translate(72.787654 0) scale(0.996264)"/>
      </g>
     </g>
    </g>
    <g id="ytick_9">
     <g id="line2d_31">
      <path d="M 462 89.4 
L 648 89.4 
" clip-path="url(#pa1cb9f7914)" style="fill: none; stroke: #b0b0b0; stroke-width: 0.8; stroke-linecap: square"/>
     </g>
     <g id="line2d_32">
      <g>
       <use xlink:href="#m2dce6e6fb2" x="462" y="89.4" style="stroke: #000000; stroke-width: 0.8"/>
      </g>
     </g>
     <g id="text_19">
      <!-- $\mathdefault{2.5}$ -->
      <g transform="translate(435.056478 94.934794) scale(0.16 -0.16)">
       <use xlink:href="#CMR17-32" transform="scale(0.996264)"/>
       <use xlink:href="#CMMI12-3a" transform="translate(45.690477 0) scale(0.996264)"/>
       <use xlink:href="#CMR17-35" transform="translate(72.787654 0) scale(0.996264)"/>
      </g>
     </g>
    </g>
    <g id="ytick_10">
     <g id="line2d_33">
      <path d="M 462 43.2 
L 648 43.2 
" clip-path="url(#pa1cb9f7914)" style="fill: none; stroke: #b0b0b0; stroke-width: 0.8; stroke-linecap: square"/>
     </g>
     <g id="line2d_34">
      <g>
       <use xlink:href="#m2dce6e6fb2" x="462" y="43.2" style="stroke: #000000; stroke-width: 0.8"/>
      </g>
     </g>
     <g id="text_20">
      <!-- $\mathdefault{3.0}$ -->
      <g transform="translate(435.056478 48.734794) scale(0.16 -0.16)">
       <use xlink:href="#CMR17-33" transform="scale(0.996264)"/>
       <use xlink:href="#CMMI12-3a" transform="translate(45.690477 0) scale(0.996264)"/>
       <use xlink:href="#CMR17-30" transform="translate(72.787654 0) scale(0.996264)"/>
      </g>
     </g>
    </g>
    <g id="text_21">
     <!-- $r$ -->
     <g transform="translate(427.957001 185.316872) rotate(-90) scale(0.16 -0.16)">
      <defs>
       <path id="CMMI12-72" d="M 2490 2612 
C 2291 2574 2189 2433 2189 2293 
C 2189 2139 2310 2088 2400 2088 
C 2579 2088 2726 2242 2726 2433 
C 2726 2638 2528 2816 2208 2816 
C 1952 2816 1658 2701 1389 2312 
C 1344 2650 1088 2816 832 2816 
C 582 2816 454 2625 378 2484 
C 269 2254 173 1871 173 1839 
C 173 1814 198 1782 243 1782 
C 294 1782 301 1788 339 1935 
C 435 2318 557 2689 813 2689 
C 966 2689 1011 2580 1011 2395 
C 1011 2254 947 2005 902 1807 
L 723 1118 
C 698 996 627 709 595 594 
C 550 428 480 128 480 96 
C 480 6 550 -64 646 -64 
C 717 -64 838 -19 877 109 
C 896 160 1133 1124 1171 1271 
C 1203 1411 1242 1546 1274 1686 
C 1299 1775 1325 1878 1344 1961 
C 1363 2018 1536 2331 1696 2472 
C 1773 2542 1939 2689 2202 2689 
C 2304 2689 2406 2670 2490 2612 
z
" transform="scale(0.015625)"/>
      </defs>
      <use xlink:href="#CMMI12-72" transform="scale(0.996264)"/>
     </g>
    </g>
   </g>
   <g id="line2d_35">
    <path d="M 508.5 274.2 
L 508.969697 274.2 
L 509.439394 274.2 
L 509.909091 274.2 
L 510.378788 274.2 
L 510.848485 274.2 
L 511.318182 274.2 
L 511.787879 274.2 
L 512.257576 274.2 
L 512.727273 274.2 
L 513.19697 274.2 
L 513.666667 274.2 
L 514.136364 274.2 
L 514.606061 274.2 
L 515.075758 274.2 
L 515.545455 274.2 
L 516.015152 274.2 
L 516.484848 274.2 
L 516.954545 274.2 
L 517.424242 274.2 
L 517.893939 274.2 
L 518.363636 274.2 
L 518.833333 274.2 
L 519.30303 274.2 
L 519.772727 274.2 
L 520.242424 274.2 
L 520.712121 274.2 
L 521.181818 274.2 
L 521.651515 274.2 
L 522.121212 274.2 
L 522.590909 274.2 
L 523.060606 274.2 
L 523.530303 274.2 
L 524 274.2 
L 524.469697 274.2 
L 524.939394 274.2 
L 525.409091 274.2 
L 525.878788 274.2 
L 526.348485 274.2 
L 526.818182 274.2 
L 527.287879 274.2 
L 527.757576 274.2 
L 528.227273 274.2 
L 528.69697 274.2 
L 529.166667 274.2 
L 529.636364 274.2 
L 530.106061 274.2 
L 530.575758 274.2 
L 531.045455 274.2 
L 531.515152 274.2 
L 531.984848 274.2 
L 532.454545 274.2 
L 532.924242 274.2 
L 533.393939 274.2 
L 533.863636 274.2 
L 534.333333 274.2 
L 534.80303 274.2 
L 535.272727 274.2 
L 535.742424 274.2 
L 536.212121 274.2 
L 536.681818 274.2 
L 537.151515 274.2 
L 537.621212 274.2 
L 538.090909 274.2 
L 538.560606 274.2 
L 539.030303 274.2 
L 539.5 274.2 
L 539.969697 274.2 
L 540.439394 274.2 
L 540.909091 274.2 
L 541.378788 274.2 
L 541.848485 274.2 
L 542.318182 274.2 
L 542.787879 274.2 
L 543.257576 274.2 
L 543.727273 274.2 
L 544.19697 274.2 
L 544.666667 274.2 
L 545.136364 274.2 
L 545.606061 274.2 
L 546.075758 274.2 
L 546.545455 274.2 
L 547.015152 274.2 
L 547.484848 274.2 
L 547.954545 274.2 
L 548.424242 274.2 
L 548.893939 274.2 
L 549.363636 274.2 
L 549.833333 274.2 
L 550.30303 274.2 
L 550.772727 274.2 
L 551.242424 274.2 
L 551.712121 274.2 
L 552.181818 274.2 
L 552.651515 274.2 
L 553.121212 274.2 
L 553.590909 274.2 
L 554.060606 274.2 
L 554.530303 274.2 
L 555 274.2 
" clip-path="url(#pa1cb9f7914)" style="fill: none; stroke: #ff0000; stroke-width: 2; stroke-linecap: square"/>
   </g>
   <g id="patch_5">
    <path d="M 462 320.4 
L 462 43.2 
" style="fill: none; stroke: #000000; stroke-width: 0.8; stroke-linejoin: miter; stroke-linecap: square"/>
   </g>
   <g id="patch_6">
    <path d="M 648 320.4 
L 648 43.2 
" style="fill: none; stroke: #000000; stroke-width: 0.8; stroke-linejoin: miter; stroke-linecap: square"/>
   </g>
   <g id="patch_7">
    <path d="M 462 320.4 
L 648 320.4 
" style="fill: none; stroke: #000000; stroke-width: 0.8; stroke-linejoin: miter; stroke-linecap: square"/>
   </g>
   <g id="patch_8">
    <path d="M 462 43.2 
L 648 43.2 
" style="fill: none; stroke: #000000; stroke-width: 0.8; stroke-linejoin: miter; stroke-linecap: square"/>
   </g>
  </g>
 </g>
 <defs>
  <clipPath id="pc1072e4bd4">
   <path d="M 276 181.8 
C 276 169.587352 273.594375 157.493456 268.920797 146.210441 
C 264.247218 134.927425 257.396577 124.674716 248.760931 116.039069 
C 240.125284 107.403423 229.872575 100.552782 218.589559 95.879203 
C 207.306544 91.205625 195.212648 88.8 183 88.8 
C 170.787352 88.8 158.693456 91.205625 147.410441 95.879203 
C 136.127425 100.552782 125.874716 107.403423 117.239069 116.039069 
C 108.603423 124.674716 101.752782 134.927425 97.079203 146.210441 
C 92.405625 157.493456 90 169.587352 90 181.8 
C 90 194.012648 92.405625 206.106544 97.079203 217.389559 
C 101.752782 228.672575 108.603423 238.925284 117.239069 247.560931 
C 125.874716 256.196577 136.127425 263.047218 147.410441 267.720797 
C 158.693456 272.394375 170.787352 274.8 183 274.8 
C 195.212648 274.8 207.306544 272.394375 218.589559 267.720797 
C 229.872575 263.047218 240.125284 256.196577 248.760931 247.560931 
C 257.396577 238.925284 264.247218 228.672575 268.920797 217.389559 
C 273.594375 206.106544 276 194.012648 276 181.8 
M 183 181.8 
C 183 181.8 183 181.8 183 181.8 
C 183 181.8 183 181.8 183 181.8 
C 183 181.8 183 181.8 183 181.8 
C 183 181.8 183 181.8 183 181.8 
C 183 181.8 183 181.8 183 181.8 
C 183 181.8 183 181.8 183 181.8 
C 183 181.8 183 181.8 183 181.8 
C 183 181.8 183 181.8 183 181.8 
C 183 181.8 183 181.8 183 181.8 
C 183 181.8 183 181.8 183 181.8 
C 183 181.8 183 181.8 183 181.8 
C 183 181.8 183 181.8 183 181.8 
C 183 181.8 183 181.8 183 181.8 
C 183 181.8 183 181.8 183 181.8 
C 183 181.8 183 181.8 183 181.8 
C 183 181.8 183 181.8 183 181.8 
z
"/>
  </clipPath>
  <clipPath id="pa1cb9f7914">
   <rect x="462" y="43.2" width="186" height="277.2"/>
  </clipPath>
 </defs>
</svg>
