<?xml version="1.0" encoding="utf-8" standalone="no"?>
<!DOCTYPE svg PUBLIC "-//W3C//DTD SVG 1.1//EN"
  "http://www.w3.org/Graphics/SVG/1.1/DTD/svg11.dtd">
<svg xmlns:xlink="http://www.w3.org/1999/xlink" width="460.8pt" height="345.6pt" viewBox="0 0 460.8 345.6" xmlns="http://www.w3.org/2000/svg" version="1.1">
 <metadata>
  <rdf:RDF xmlns:dc="http://purl.org/dc/elements/1.1/" xmlns:cc="http://creativecommons.org/ns#" xmlns:rdf="http://www.w3.org/1999/02/22-rdf-syntax-ns#">
   <cc:Work>
    <dc:type rdf:resource="http://purl.org/dc/dcmitype/StillImage"/>
    <dc:date>2023-12-09T00:11:02.398977</dc:date>
    <dc:format>image/svg+xml</dc:format>
    <dc:creator>
     <cc:Agent>
      <dc:title>Matplotlib v3.8.0, https://matplotlib.org/</dc:title>
     </cc:Agent>
    </dc:creator>
   </cc:Work>
  </rdf:RDF>
 </metadata>
 <defs>
  <style type="text/css">*{stroke-linejoin: round; stroke-linecap: butt}</style>
 </defs>
 <g id="figure_1">
  <g id="patch_1">
   <path d="M 0 345.6 
L 460.8 345.6 
L 460.8 0 
L 0 0 
z
" style="fill: #ffffff"/>
  </g>
  <g id="axes_1">
   <g id="patch_2">
    <path d="M 369.216 174.528 
C 369.216 157.055246 365.774248 139.752393 359.087715 123.609673 
C 352.401182 107.466954 342.599903 92.798303 330.2448 80.4432 
C 317.889697 68.088097 303.221046 58.286818 287.078327 51.600285 
C 270.935607 44.913752 253.632754 41.472 236.16 41.472 
C 218.687246 41.472 201.384393 44.913752 185.241673 51.600285 
C 169.098954 58.286818 154.430303 68.088097 142.0752 80.4432 
C 129.720097 92.798303 119.918818 107.466954 113.232285 123.609673 
C 106.545752 139.752393 103.104 157.055246 103.104 174.528 
C 103.104 192.000754 106.545752 209.303607 113.232285 225.446327 
C 119.918818 241.589046 129.720097 256.257697 142.0752 268.6128 
C 154.430303 280.967903 169.098954 290.769182 185.241673 297.455715 
C 201.384393 304.142248 218.687246 307.584 236.16 307.584 
C 253.632754 307.584 270.935607 304.142248 287.078327 297.455715 
C 303.221046 290.769182 317.889697 280.967903 330.2448 268.6128 
C 342.599903 256.257697 352.401182 241.589046 359.087715 225.446327 
C 365.774248 209.303607 369.216 192.000754 369.216 174.528 
M 236.16 174.528 
C 236.16 174.528 236.16 174.528 236.16 174.528 
C 236.16 174.528 236.16 174.528 236.16 174.528 
C 236.16 174.528 236.16 174.528 236.16 174.528 
C 236.16 174.528 236.16 174.528 236.16 174.528 
C 236.16 174.528 236.16 174.528 236.16 174.528 
C 236.16 174.528 236.16 174.528 236.16 174.528 
C 236.16 174.528 236.16 174.528 236.16 174.528 
C 236.16 174.528 236.16 174.528 236.16 174.528 
C 236.16 174.528 236.16 174.528 236.16 174.528 
C 236.16 174.528 236.16 174.528 236.16 174.528 
C 236.16 174.528 236.16 174.528 236.16 174.528 
C 236.16 174.528 236.16 174.528 236.16 174.528 
C 236.16 174.528 236.16 174.528 236.16 174.528 
C 236.16 174.528 236.16 174.528 236.16 174.528 
C 236.16 174.528 236.16 174.528 236.16 174.528 
C 236.16 174.528 236.16 174.528 236.16 174.528 
z
" style="fill: #ffffff"/>
   </g>
   <g id="matplotlib.axis_1">
    <g id="xtick_1">
     <g id="line2d_1">
      <path d="M 236.16 174.528 
L 369.216 174.528 
" clip-path="url(#p39155ede6f)" style="fill: none; stroke: #b0b0b0; stroke-width: 0.8; stroke-linecap: square"/>
     </g>
     <g id="text_1">
      <!-- $0$ -->
      <g transform="translate(379.314006 178.513056) scale(0.16 -0.16)">
       <defs>
        <path id="CMR17-30" d="M 2688 2025 
C 2688 2416 2682 3080 2413 3591 
C 2176 4039 1798 4198 1466 4198 
C 1158 4198 768 4058 525 3597 
C 269 3118 243 2524 243 2025 
C 243 1661 250 1106 448 619 
C 723 -39 1216 -128 1466 -128 
C 1760 -128 2208 -7 2470 600 
C 2662 1042 2688 1559 2688 2025 
z
M 1466 -26 
C 1056 -26 813 325 723 812 
C 653 1188 653 1738 653 2096 
C 653 2588 653 2997 736 3387 
C 858 3929 1216 4096 1466 4096 
C 1728 4096 2067 3923 2189 3400 
C 2272 3036 2278 2607 2278 2096 
C 2278 1680 2278 1169 2202 792 
C 2067 95 1690 -26 1466 -26 
z
" transform="scale(0.015625)"/>
       </defs>
       <use xlink:href="#CMR17-30" transform="scale(0.996264)"/>
      </g>
     </g>
    </g>
    <g id="xtick_2">
     <g id="line2d_2">
      <path d="M 236.16 174.528 
L 236.16 41.472 
" clip-path="url(#p39155ede6f)" style="fill: none; stroke: #b0b0b0; stroke-width: 0.8; stroke-linecap: square"/>
     </g>
     <g id="text_2">
      <!-- $\pi/2$ -->
      <g transform="translate(223.643164 31.457056) scale(0.16 -0.16)">
       <defs>
        <path id="CMMI12-19" d="M 1658 2408 
L 2381 2408 
C 2208 1692 2099 1226 2099 716 
C 2099 626 2099 -64 2362 -64 
C 2496 -64 2611 57 2611 166 
C 2611 197 2611 210 2566 306 
C 2394 747 2394 1296 2394 1341 
C 2394 1379 2394 1832 2528 2408 
L 3245 2408 
C 3328 2408 3539 2408 3539 2612 
C 3539 2752 3418 2752 3302 2752 
L 1197 2752 
C 1050 2752 832 2752 538 2440 
C 371 2254 166 1916 166 1878 
C 166 1840 198 1827 237 1827 
C 282 1827 288 1846 320 1884 
C 653 2408 986 2408 1146 2408 
L 1510 2408 
C 1370 1929 1210 1373 685 256 
C 634 154 634 140 634 102 
C 634 -32 749 -64 806 -64 
C 992 -64 1043 102 1120 370 
C 1222 696 1222 709 1286 964 
L 1658 2408 
z
" transform="scale(0.015625)"/>
        <path id="CMMI12-3d" d="M 2746 4562 
C 2746 4569 2784 4666 2784 4678 
C 2784 4755 2720 4800 2669 4800 
C 2637 4800 2579 4800 2528 4659 
L 384 -1363 
C 384 -1370 346 -1465 346 -1478 
C 346 -1555 410 -1600 461 -1600 
C 499 -1600 557 -1593 602 -1459 
L 2746 4562 
z
" transform="scale(0.015625)"/>
        <path id="CMR17-32" d="M 2669 989 
L 2554 989 
C 2490 536 2438 459 2413 420 
C 2381 369 1920 369 1830 369 
L 602 369 
C 832 619 1280 1072 1824 1597 
C 2214 1967 2669 2402 2669 3035 
C 2669 3790 2067 4224 1395 4224 
C 691 4224 262 3604 262 3030 
C 262 2780 448 2748 525 2748 
C 589 2748 781 2787 781 3010 
C 781 3207 614 3264 525 3264 
C 486 3264 448 3258 422 3245 
C 544 3790 915 4058 1306 4058 
C 1862 4058 2227 3617 2227 3035 
C 2227 2479 1901 2000 1536 1584 
L 262 146 
L 262 0 
L 2515 0 
L 2669 989 
z
" transform="scale(0.015625)"/>
       </defs>
       <use xlink:href="#CMMI12-19" transform="scale(0.996264)"/>
       <use xlink:href="#CMMI12-3d" transform="translate(58.910601 0) scale(0.996264)"/>
       <use xlink:href="#CMR17-32" transform="translate(107.68552 0) scale(0.996264)"/>
      </g>
     </g>
    </g>
    <g id="xtick_3">
     <g id="line2d_3">
      <path d="M 236.16 174.528 
L 103.104 174.528 
" clip-path="url(#p39155ede6f)" style="fill: none; stroke: #b0b0b0; stroke-width: 0.8; stroke-linecap: square"/>
     </g>
     <g id="text_3">
      <!-- $\pi$ -->
      <g transform="translate(84.677119 178.513056) scale(0.16 -0.16)">
       <use xlink:href="#CMMI12-19" transform="scale(0.996264)"/>
      </g>
     </g>
    </g>
    <g id="xtick_4">
     <g id="line2d_4">
      <path d="M 236.16 174.528 
L 236.16 307.584 
" clip-path="url(#p39155ede6f)" style="fill: none; stroke: #b0b0b0; stroke-width: 0.8; stroke-linecap: square"/>
     </g>
     <g id="text_4">
      <!-- $3\pi/2$ -->
      <g transform="translate(219.741171 325.569056) scale(0.16 -0.16)">
       <defs>
        <path id="CMR17-33" d="M 1414 2157 
C 1984 2157 2234 1662 2234 1090 
C 2234 320 1824 25 1453 25 
C 1114 25 563 194 390 693 
C 422 680 454 680 486 680 
C 640 680 755 782 755 948 
C 755 1133 614 1216 486 1216 
C 378 1216 211 1165 211 926 
C 211 335 787 -128 1466 -128 
C 2176 -128 2720 430 2720 1085 
C 2720 1707 2208 2157 1600 2227 
C 2086 2328 2554 2756 2554 3329 
C 2554 3820 2048 4179 1472 4179 
C 890 4179 378 3829 378 3329 
C 378 3110 544 3072 627 3072 
C 762 3072 877 3155 877 3321 
C 877 3486 762 3569 627 3569 
C 602 3569 570 3569 544 3557 
C 730 3959 1235 4032 1459 4032 
C 1683 4032 2106 3925 2106 3320 
C 2106 3143 2080 2828 1862 2550 
C 1670 2304 1453 2304 1242 2284 
C 1210 2284 1062 2269 1037 2269 
C 992 2263 966 2257 966 2208 
C 966 2163 973 2157 1101 2157 
L 1414 2157 
z
" transform="scale(0.015625)"/>
       </defs>
       <use xlink:href="#CMR17-33" transform="scale(0.996264)"/>
       <use xlink:href="#CMMI12-19" transform="translate(45.690477 0) scale(0.996264)"/>
       <use xlink:href="#CMMI12-3d" transform="translate(104.601078 0) scale(0.996264)"/>
       <use xlink:href="#CMR17-32" transform="translate(153.375997 0) scale(0.996264)"/>
      </g>
     </g>
    </g>
   </g>
   <g id="matplotlib.axis_2">
    <g id="ytick_1">
     <g id="line2d_5">
      <path d="M 258.410167 174.528 
C 258.410167 171.606135 257.834623 168.712681 256.716474 166.01323 
C 255.598325 163.313778 253.959315 160.860827 251.893244 158.794756 
C 249.827173 156.728685 247.374222 155.089675 244.67477 153.971526 
C 241.975319 152.853377 239.081865 152.277833 236.16 152.277833 
C 233.238135 152.277833 230.344681 152.853377 227.64523 153.971526 
C 224.945778 155.089675 222.492827 156.728685 220.426756 158.794756 
C 218.360685 160.860827 216.721675 163.313778 215.603526 166.01323 
C 214.485377 168.712681 213.909833 171.606135 213.909833 174.528 
C 213.909833 177.449865 214.485377 180.343319 215.603526 183.04277 
C 216.721675 185.742222 218.360685 188.195173 220.426756 190.261244 
C 222.492827 192.327315 224.945778 193.966325 227.64523 195.084474 
C 230.344681 196.202623 233.238135 196.778167 236.16 196.778167 
C 239.081865 196.778167 241.975319 196.202623 244.67477 195.084474 
C 247.374222 193.966325 249.827173 192.327315 251.893244 190.261244 
C 253.959315 188.195173 255.598325 185.742222 256.716474 183.04277 
C 257.834623 180.343319 258.410167 177.449865 258.410167 174.528 
" clip-path="url(#p39155ede6f)" style="fill: none; stroke: #b0b0b0; stroke-width: 0.8; stroke-linecap: square"/>
     </g>
    </g>
    <g id="ytick_2">
     <g id="line2d_6">
      <path d="M 280.660334 174.528 
C 280.660334 168.68427 279.509247 162.897362 277.272948 157.498459 
C 275.036649 152.099556 271.75863 147.193653 267.626488 143.061512 
C 263.494347 138.92937 258.588444 135.651351 253.189541 133.415052 
C 247.790638 131.178753 242.00373 130.027666 236.16 130.027666 
C 230.31627 130.027666 224.529362 131.178753 219.130459 133.415052 
C 213.731556 135.651351 208.825653 138.92937 204.693512 143.061512 
C 200.56137 147.193653 197.283351 152.099556 195.047052 157.498459 
C 192.810753 162.897362 191.659666 168.68427 191.659666 174.528 
C 191.659666 180.37173 192.810753 186.158638 195.047052 191.557541 
C 197.283351 196.956444 200.56137 201.862347 204.693512 205.994488 
C 208.825653 210.12663 213.731556 213.404649 219.130459 215.640948 
C 224.529362 217.877247 230.31627 219.028334 236.16 219.028334 
C 242.00373 219.028334 247.790638 217.877247 253.189541 215.640948 
C 258.588444 213.404649 263.494347 210.12663 267.626488 205.994488 
C 271.75863 201.862347 275.036649 196.956444 277.272948 191.557541 
C 279.509247 186.158638 280.660334 180.37173 280.660334 174.528 
" clip-path="url(#p39155ede6f)" style="fill: none; stroke: #b0b0b0; stroke-width: 0.8; stroke-linecap: square"/>
     </g>
    </g>
    <g id="ytick_3">
     <g id="line2d_7">
      <path d="M 302.910502 174.528 
C 302.910502 165.762404 301.18387 157.082043 297.829422 148.983689 
C 294.474974 140.885335 289.557944 133.52648 283.359732 127.328268 
C 277.16152 121.130056 269.802665 116.213026 261.704311 112.858578 
C 253.605957 109.50413 244.925596 107.777498 236.16 107.777498 
C 227.394404 107.777498 218.714043 109.50413 210.615689 112.858578 
C 202.517335 116.213026 195.15848 121.130056 188.960268 127.328268 
C 182.762056 133.52648 177.845026 140.885335 174.490578 148.983689 
C 171.13613 157.082043 169.409498 165.762404 169.409498 174.528 
C 169.409498 183.293596 171.13613 191.973957 174.490578 200.072311 
C 177.845026 208.170665 182.762056 215.52952 188.960268 221.727732 
C 195.15848 227.925944 202.517335 232.842974 210.615689 236.197422 
C 218.714043 239.55187 227.394404 241.278502 236.16 241.278502 
C 244.925596 241.278502 253.605957 239.55187 261.704311 236.197422 
C 269.802665 232.842974 277.16152 227.925944 283.359732 221.727732 
C 289.557944 215.52952 294.474974 208.170665 297.829422 200.072311 
C 301.18387 191.973957 302.910502 183.293596 302.910502 174.528 
" clip-path="url(#p39155ede6f)" style="fill: none; stroke: #b0b0b0; stroke-width: 0.8; stroke-linecap: square"/>
     </g>
    </g>
    <g id="ytick_4">
     <g id="line2d_8">
      <path d="M 325.160669 174.528 
C 325.160669 162.840539 322.858494 151.266724 318.385896 140.468919 
C 313.913299 129.671113 307.357259 119.859306 299.092977 111.595023 
C 290.828694 103.330741 281.016887 96.774701 270.219081 92.302104 
C 259.421276 87.829506 247.847461 85.527331 236.16 85.527331 
C 224.472539 85.527331 212.898724 87.829506 202.100919 92.302104 
C 191.303113 96.774701 181.491306 103.330741 173.227023 111.595023 
C 164.962741 119.859306 158.406701 129.671113 153.934104 140.468919 
C 149.461506 151.266724 147.159331 162.840539 147.159331 174.528 
C 147.159331 186.215461 149.461506 197.789276 153.934104 208.587081 
C 158.406701 219.384887 164.962741 229.196694 173.227023 237.460977 
C 181.491306 245.725259 191.303113 252.281299 202.100919 256.753896 
C 212.898724 261.226494 224.472539 263.528669 236.16 263.528669 
C 247.847461 263.528669 259.421276 261.226494 270.219081 256.753896 
C 281.016887 252.281299 290.828694 245.725259 299.092977 237.460977 
C 307.357259 229.196694 313.913299 219.384887 318.385896 208.587081 
C 322.858494 197.789276 325.160669 186.215461 325.160669 174.528 
" clip-path="url(#p39155ede6f)" style="fill: none; stroke: #b0b0b0; stroke-width: 0.8; stroke-linecap: square"/>
     </g>
    </g>
    <g id="ytick_5">
     <g id="line2d_9">
      <path d="M 347.410836 174.528 
C 347.410836 159.918674 344.533117 145.451405 338.94237 131.954148 
C 333.351623 118.456891 325.156574 106.192133 314.826221 95.861779 
C 304.495867 85.531426 292.231109 77.336377 278.733852 71.74563 
C 265.236595 66.154883 250.769326 63.277164 236.16 63.277164 
C 221.550674 63.277164 207.083405 66.154883 193.586148 71.74563 
C 180.088891 77.336377 167.824133 85.531426 157.493779 95.861779 
C 147.163426 106.192133 138.968377 118.456891 133.37763 131.954148 
C 127.786883 145.451405 124.909164 159.918674 124.909164 174.528 
C 124.909164 189.137326 127.786883 203.604595 133.37763 217.101852 
C 138.968377 230.599109 147.163426 242.863867 157.493779 253.194221 
C 167.824133 263.524574 180.088891 271.719623 193.586148 277.31037 
C 207.083405 282.901117 221.550674 285.778836 236.16 285.778836 
C 250.769326 285.778836 265.236595 282.901117 278.733852 277.31037 
C 292.231109 271.719623 304.495867 263.524574 314.826221 253.194221 
C 325.156574 242.863867 333.351623 230.599109 338.94237 217.101852 
C 344.533117 203.604595 347.410836 189.137326 347.410836 174.528 
" clip-path="url(#p39155ede6f)" style="fill: none; stroke: #b0b0b0; stroke-width: 0.8; stroke-linecap: square"/>
     </g>
    </g>
   </g>
   <g id="QuadContourSet_1">
    <path d="M 280.660334 174.528 
L 280.660334 174.528 
L 280.660334 174.528 
z
" clip-path="url(#p39155ede6f)" style="fill: none; stroke: #000004; stroke-width: 1.5"/>
    <path d="M 252.516501 174.528 
L 252.626967 172.039261 
L 252.967218 169.512511 
L 253.486667 167.202403 
L 254.218265 164.888173 
L 255.162758 162.61423 
L 256.282173 160.464234 
L 257.520403 158.508203 
L 258.911076 156.665841 
L 260.726417 154.659679 
L 262.702555 152.857729 
L 264.83845 151.252235 
L 267.134769 149.847172 
L 269.385403 148.741602 
L 271.317874 147.980005 
L 273.57601 147.289924 
L 275.945707 146.781506 
L 278.426926 146.473079 
L 281.046636 146.386344 
L 283.722294 146.55111 
L 285.965331 146.888909 
L 288.278941 147.434541 
L 290.664096 148.221557 
L 293.121023 149.293297 
L 295.030744 150.328891 
L 297.013639 151.622517 
L 298.907964 153.101098 
L 300.917568 154.990964 
L 302.568596 156.861883 
L 303.907736 158.665317 
L 305.091002 160.554994 
L 306.113624 162.519983 
L 307.185256 165.120756 
L 307.869446 167.333056 
L 308.345146 169.46677 
L 308.654741 171.626663 
L 308.794817 173.801628 
L 308.804168 174.528 
M 308.803219 174.759392 
L 308.701274 176.936189 
L 308.430192 179.100501 
L 307.904335 181.584669 
L 307.148893 184.03898 
L 306.323934 186.080451 
L 305.05602 188.56042 
L 303.773269 190.586545 
L 302.279273 192.54669 
L 300.90949 194.074904 
L 298.908458 195.953454 
L 296.939048 197.486042 
L 294.811059 198.855481 
L 292.500148 200.060063 
L 290.061684 201.054747 
L 287.694175 201.778448 
L 285.390972 202.272022 
L 282.62732 202.603551 
L 279.968741 202.663372 
L 277.421077 202.484867 
L 274.98479 202.093522 
L 272.659584 201.510651 
L 270.414491 200.741001 
L 267.935858 199.631078 
L 265.586193 198.294601 
L 263.396582 196.755487 
L 261.367289 195.019064 
L 259.498348 193.082489 
L 257.789654 190.929834 
L 256.376988 188.754103 
L 255.219173 186.561882 
L 254.218421 184.167536 
L 253.435144 181.661775 
L 252.89456 179.127463 
L 252.602915 176.730996 
L 252.516549 174.580101 
L 252.516549 174.580101 
" clip-path="url(#p39155ede6f)" style="fill: none; stroke: #03030f; stroke-width: 1.5"/>
    <path d="M 240.858639 174.528 
L 240.967878 171.580265 
L 241.289238 168.68922 
L 241.795446 165.941402 
L 242.500035 163.214683 
L 243.493747 160.285092 
L 244.724183 157.416352 
L 246.172695 154.658026 
L 247.839216 152.011588 
L 249.723869 149.485156 
L 251.826467 147.090419 
L 253.802163 145.153488 
L 255.938416 143.334587 
L 258.234434 141.644889 
L 260.84437 140.009807 
L 263.509255 138.611217 
L 266.193849 137.448226 
L 269.021471 136.465644 
L 272.118937 135.65347 
L 275.22815 135.098614 
L 277.938587 134.819481 
L 280.635645 134.725966 
L 283.600105 134.834991 
L 286.825419 135.206319 
L 290.008196 135.839618 
L 292.781724 136.616605 
L 295.45506 137.578203 
L 298.394236 138.895052 
L 301.186793 140.427739 
L 303.557154 141.971463 
L 305.672052 143.566561 
L 308.172161 145.765427 
L 310.318448 147.98477 
L 312.150822 150.18605 
L 314.108723 152.955057 
L 315.416577 155.132592 
L 316.93796 158.153497 
L 318.195872 161.289095 
L 318.961673 163.702731 
L 319.740817 166.98535 
L 320.23927 170.32053 
L 320.453106 173.685041 
L 320.46203 174.528 
M 320.461125 174.796526 
L 320.295786 178.16369 
L 319.845754 181.505527 
L 319.11431 184.798756 
L 318.105442 188.020269 
L 316.82659 191.147607 
L 315.694004 193.417789 
L 313.96151 196.327241 
L 311.985029 199.083424 
L 310.317778 201.073103 
L 307.974647 203.478847 
L 305.394656 205.711188 
L 303.333576 207.24084 
L 300.454181 209.059418 
L 298.147759 210.282484 
L 295.455186 211.477593 
L 292.517107 212.522768 
L 289.994383 213.220318 
L 286.748429 213.861433 
L 283.912876 214.196568 
L 281.161155 214.326944 
L 278.213309 214.254464 
L 275.376409 213.977466 
L 272.650729 213.515556 
L 270.036291 212.885749 
L 267.04576 211.929073 
L 264.215373 210.774033 
L 261.44818 209.386031 
L 258.797632 207.787558 
L 256.686026 206.299597 
L 254.398941 204.436581 
L 252.144719 202.296071 
L 250.010829 199.92136 
L 248.095118 197.412909 
L 246.39732 194.783075 
L 244.91777 192.040385 
L 243.656175 189.187729 
L 242.612618 186.215125 
L 241.816133 183.206254 
L 241.295992 180.412163 
L 240.964462 177.42878 
L 240.858641 174.542967 
L 240.858641 174.542967 
" clip-path="url(#p39155ede6f)" style="fill: none; stroke: #08071e; stroke-width: 1.5"/>
    <path d="M 329.406599 174.82502 
L 329.241312 178.550246 
L 328.792065 182.25145 
L 328.061267 185.906499 
L 327.330996 188.604333 
L 326.120488 192.12652 
L 324.644785 195.543651 
L 323.370858 198.025672 
L 321.456333 201.211236 
L 319.3071 204.238522 
L 317.187187 206.80861 
L 315.02336 209.10355 
L 312.881348 211.107959 
L 310.146612 213.346276 
L 307.129637 215.463223 
L 304.604303 216.989416 
L 301.417853 218.635041 
L 298.150777 220.029525 
L 294.699014 221.210049 
L 291.554692 222.042088 
L 288.513938 222.638525 
L 285.166464 223.066528 
L 281.773411 223.262446 
L 278.491287 223.227079 
L 275.134972 222.961094 
L 271.65208 222.436076 
L 268.164779 221.646834 
L 264.82728 220.632615 
L 261.649922 219.415953 
L 258.632736 218.014948 
L 255.770314 216.44244 
L 253.025326 214.685447 
L 250.458501 212.792247 
L 248.080395 210.788842 
L 245.596411 208.393126 
L 243.455635 206.025639 
L 241.402179 203.426606 
L 239.455273 200.575583 
L 237.722875 197.608453 
L 236.215626 194.553073 
L 234.922886 191.392814 
L 233.84818 188.128014 
L 232.99156 184.72727 
L 232.396784 181.377577 
L 232.040886 178.057105 
L 231.9143 174.861578 
L 232.00415 171.551098 
L 232.318888 168.251776 
L 232.833515 165.100287 
L 233.581185 161.883189 
L 234.59358 158.584644 
L 235.82402 155.395806 
L 237.291667 152.268643 
L 238.970713 149.263604 
L 240.82369 146.432225 
L 242.92636 143.6658 
L 245.247078 141.02834 
L 247.694658 138.617507 
L 250.135423 136.520669 
L 252.645228 134.634611 
L 255.315202 132.88719 
L 258.173482 131.276798 
L 261.209337 129.829341 
L 264.382028 128.578858 
L 267.673807 127.542229 
L 271.068293 126.733356 
L 274.537062 126.166829 
L 277.848301 125.861854 
L 281.108107 125.782879 
L 284.478809 125.930426 
L 287.960765 126.330219 
L 291.554271 127.013421 
L 294.976487 127.930393 
L 297.568523 128.806664 
L 300.948934 130.203506 
L 303.801352 131.623991 
L 306.600426 133.255756 
L 309.517094 135.239616 
L 312.033867 137.218935 
L 314.589707 139.526212 
L 317.186528 142.245736 
L 319.486537 145.052331 
L 321.106219 147.31739 
L 323.061443 150.477319 
L 324.368092 152.942007 
L 325.887224 156.339391 
L 327.050707 159.555356 
L 327.909062 162.532974 
L 328.518612 165.261229 
L 329.086998 168.94568 
L 329.371831 172.663515 
L 329.407504 174.528 
L 329.407504 174.528 
" clip-path="url(#p39155ede6f)" style="fill: none; stroke: #100b2d; stroke-width: 1.5"/>
    <path d="M 336.947945 174.849042 
L 336.78073 178.87604 
L 336.326086 182.879619 
L 335.586496 186.838214 
L 334.847411 189.764829 
L 333.621734 193.593951 
L 332.468227 196.535639 
L 330.836826 200.037267 
L 329.405021 202.677279 
L 327.284545 206.065092 
L 324.935243 209.286367 
L 322.812014 211.832126 
L 320.316604 214.47526 
L 318.149684 216.516004 
L 315.127442 219.029954 
L 311.942806 221.323615 
L 309.161414 223.067276 
L 306.054189 224.762962 
L 303.133748 226.135432 
L 299.786808 227.467637 
L 296.220856 228.623029 
L 292.517519 229.553889 
L 288.635244 230.248808 
L 284.863896 230.659388 
L 281.203682 230.813992 
L 277.654627 230.736429 
L 274.216695 230.446927 
L 270.710284 229.930207 
L 267.045778 229.145423 
L 263.361069 228.092557 
L 260.02694 226.898477 
L 257.014857 225.609666 
L 253.791253 223.989909 
L 250.720583 222.194051 
L 247.693898 220.152827 
L 244.856461 217.96164 
L 242.282737 215.705161 
L 239.968385 213.41994 
L 237.520562 210.685508 
L 235.410313 208.007036 
L 233.60875 205.423822 
L 231.853466 202.569046 
L 230.238435 199.548903 
L 228.826341 196.475326 
L 227.517937 193.084453 
L 226.433578 189.623073 
L 225.608437 186.262011 
L 224.985826 182.820033 
L 224.583002 179.400957 
L 224.389196 175.9283 
L 224.412948 172.37106 
L 224.662874 168.808939 
L 225.119032 165.385889 
L 225.795233 161.949372 
L 226.658246 158.648012 
L 227.72486 155.389238 
L 229.059892 152.036912 
L 230.667938 148.659883 
L 232.396563 145.562326 
L 234.270336 142.64728 
L 236.187477 140.023459 
L 238.425029 137.317897 
L 240.553934 135.03265 
L 242.936071 132.751108 
L 245.579106 130.508362 
L 248.48606 128.341255 
L 251.221308 126.55117 
L 254.373856 124.754009 
L 257.57605 123.19049 
L 261.051008 121.765282 
L 264.57158 120.587577 
L 267.675321 119.757381 
L 270.986694 119.076729 
L 274.503446 118.5772 
L 278.095404 118.297914 
L 281.744175 118.249802 
L 284.863969 118.396675 
L 288.635447 118.807383 
L 291.911432 119.375253 
L 295.596585 120.257076 
L 298.961767 121.297881 
L 302.290514 122.561545 
L 305.69022 124.110815 
L 308.890943 125.830586 
L 311.811512 127.645512 
L 314.595498 129.618828 
L 317.652694 132.10202 
L 320.00161 134.270771 
L 322.582893 136.965914 
L 324.707719 139.482448 
L 326.900114 142.429875 
L 329.060314 145.790565 
L 330.980623 149.303672 
L 332.649332 152.951111 
L 334.055658 156.713973 
L 335.191498 160.572294 
L 336.049431 164.505627 
L 336.624584 168.492881 
L 336.912774 172.512676 
L 336.94886 174.528 
L 336.94886 174.528 
" clip-path="url(#p39155ede6f)" style="fill: none; stroke: #19103f; stroke-width: 1.5"/>
    <path d="M 343.591997 174.870205 
L 343.422089 179.163028 
L 342.959913 183.432733 
L 342.208193 187.658061 
L 341.456813 190.785287 
L 340.210335 194.882846 
L 338.88808 198.40215 
L 337.377003 201.79942 
L 335.402161 205.573906 
L 333.182686 209.196614 
L 330.732007 212.651007 
L 328.563637 215.341619 
L 325.929914 218.245024 
L 323.56814 220.565244 
L 320.549998 223.204076 
L 317.25202 225.729158 
L 313.911365 227.959214 
L 311.101012 229.608893 
L 307.416531 231.489675 
L 303.802753 233.051382 
L 300.02641 234.406843 
L 296.201148 235.511605 
L 292.551287 236.327058 
L 289.240469 236.873 
L 285.202196 237.296442 
L 281.274995 237.457582 
L 277.459019 237.379158 
L 273.754313 237.080602 
L 270.160876 236.578671 
L 266.339757 235.809572 
L 262.646908 234.827656 
L 258.901803 233.579623 
L 255.671317 232.286944 
L 252.093401 230.603706 
L 248.675758 228.727105 
L 245.418364 226.667782 
L 242.321148 224.434507 
L 239.376385 222.027388 
L 236.501274 219.366612 
L 233.948581 216.700904 
L 231.534133 213.862221 
L 229.237891 210.808837 
L 227.101844 207.574296 
L 225.126006 204.133912 
L 223.433965 200.712993 
L 222.043019 197.430416 
L 220.770067 193.858443 
L 219.75747 190.382406 
L 218.932937 186.785182 
L 218.316012 183.112605 
L 217.912826 179.351037 
L 217.736971 175.605266 
L 217.782227 171.908312 
L 218.037549 168.288343 
L 218.512618 164.61985 
L 219.190176 161.039539 
L 220.058387 157.559946 
L 221.185191 153.955262 
L 222.466837 150.568167 
L 223.97671 147.187774 
L 225.766828 143.750198 
L 227.822768 140.3412 
L 229.985502 137.210073 
L 232.335149 134.213732 
L 234.898006 131.326755 
L 237.573063 128.65835 
L 240.345308 126.203538 
L 243.342332 123.853315 
L 246.486391 121.682061 
L 249.797269 119.682598 
L 253.268313 117.869174 
L 256.899484 116.253028 
L 260.6909 114.847407 
L 264.058427 113.824507 
L 267.480455 112.990833 
L 271.010744 112.339467 
L 274.635848 111.884301 
L 278.340926 111.638 
L 282.109888 111.611829 
L 286.000555 111.822135 
L 290.061601 112.3016 
L 293.622457 112.944696 
L 297.465714 113.880615 
L 301.139794 115.02073 
L 304.106521 116.126018 
L 307.817902 117.756728 
L 311.101672 119.448005 
L 314.093721 121.210673 
L 317.520096 123.519326 
L 320.624596 125.913684 
L 323.166599 128.119712 
L 325.552894 130.424006 
L 328.284021 133.387941 
L 330.59311 136.224307 
L 332.78131 139.258469 
L 335.040983 142.853701 
L 337.058436 146.603537 
L 338.821696 150.490445 
L 339.970759 153.484517 
L 341.264174 157.566345 
L 342.278503 161.732301 
L 343.007429 165.961924 
L 343.363981 169.16333 
L 343.58376 173.453727 
L 343.592928 174.528 
L 343.592928 174.528 
" clip-path="url(#p39155ede6f)" style="fill: none; stroke: #221150; stroke-width: 1.5"/>
    <path d="M 368.329396 189.8626 
L 367.61931 193.480742 
L 366.681998 197.36123 
L 365.573231 201.190799 
L 364.296086 204.961066 
L 362.85423 208.663881 
L 361.251901 212.291376 
L 359.124803 216.531747 
L 356.916123 220.420619 
L 354.814654 223.743972 
L 352.575785 226.9615 
L 350.136921 230.15249 
L 346.852121 234.023538 
L 343.852085 237.200228 
L 340.500687 240.408269 
L 337.609554 242.92314 
L 333.614949 246.060395 
L 330.414379 248.322407 
L 326.294034 250.938963 
L 322.144162 253.269071 
L 318.640377 255.017945 
L 314.091423 257.011104 
L 309.587869 258.696335 
L 305.040725 260.124128 
L 300.445033 261.301506 
L 295.848267 262.22292 
L 291.242573 262.897282 
L 286.71875 263.321962 
L 282.051259 263.517655 
L 277.77838 263.481758 
L 273.22015 263.216999 
L 268.469844 262.689656 
L 263.931069 261.942137 
L 259.888933 261.070609 
L 255.760335 259.974443 
L 251.237553 258.524333 
L 247.216244 257.005875 
L 243.111 255.219773 
L 239.117048 253.238065 
L 235.211927 251.049603 
L 231.46297 248.694975 
L 227.802738 246.132486 
L 224.183265 243.313475 
L 220.613082 240.219741 
L 217.335059 237.06593 
L 214.274613 233.807558 
L 211.168487 230.133768 
L 208.3354 226.394985 
L 205.863972 222.763268 
L 203.569257 219.003475 
L 201.323965 214.861903 
L 199.349084 210.716685 
L 197.71801 206.802721 
L 196.138483 202.405021 
L 194.838075 198.10005 
L 193.788997 193.878616 
L 192.889678 189.272203 
L 192.247266 184.736131 
L 191.844063 180.249975 
L 191.668667 175.792221 
L 191.716878 171.340752 
L 191.989662 166.873419 
L 192.494377 162.368279 
L 193.245306 157.804292 
L 194.148249 153.629929 
L 195.361585 149.125487 
L 196.823609 144.652407 
L 198.377414 140.60718 
L 200.153627 136.584094 
L 202.216532 132.484683 
L 204.281804 128.839833 
L 206.614319 125.149216 
L 209.238372 121.424424 
L 211.782607 118.163228 
L 214.908745 114.545851 
L 218.031022 111.293044 
L 220.816258 108.650781 
L 224.381215 105.580554 
L 227.80275 102.923513 
L 231.462933 100.361028 
L 235.234382 97.993022 
L 239.117079 95.817936 
L 243.111039 93.83623 
L 247.216212 92.050121 
L 251.532694 90.428778 
L 255.760417 89.081576 
L 260.20665 87.909502 
L 264.749597 86.96125 
L 269.410744 86.241209 
L 273.758776 85.7956 
L 278.129391 85.563376 
L 283.055027 85.559841 
L 287.112956 85.761586 
L 291.631238 86.20636 
L 296.213982 86.897162 
L 299.71552 87.591205 
L 304.258583 88.713012 
L 308.839715 90.106451 
L 313.386809 91.762969 
L 317.516405 93.517695 
L 321.205884 95.299555 
L 325.562037 97.684387 
L 329.220244 99.942798 
L 332.91987 102.486036 
L 336.939708 105.580892 
L 340.13389 108.316831 
L 343.584298 111.586276 
L 346.35225 114.480978 
L 349.649257 118.299887 
L 352.048466 121.379113 
L 354.317924 124.571631 
L 356.534045 128.006583 
L 358.442165 131.272289 
L 360.426093 135.050895 
L 361.975652 138.349165 
L 363.507805 142.010767 
L 364.877707 145.744221 
L 366.081374 149.541543 
L 367.115398 153.394488 
L 367.976388 157.294679 
L 368.329856 159.197363 
L 368.329856 159.197363 
" clip-path="url(#p39155ede6f)" style="fill: none; stroke: #5f187f; stroke-width: 1.5"/>
    <path d="M 323.828511 274.618616 
L 319.736701 276.286045 
L 314.532419 278.134697 
L 309.295159 279.702631 
L 304.042748 280.993503 
L 298.792387 282.012223 
L 293.560545 282.764872 
L 289.525046 283.169952 
L 284.49578 283.463475 
L 279.392554 283.523513 
L 274.361694 283.348852 
L 269.415072 282.949385 
L 264.563598 282.335812 
L 259.558475 281.468976 
L 255.184431 280.512204 
L 249.886271 279.096747 
L 245.213993 277.606544 
L 240.574486 275.892681 
L 235.922537 273.927004 
L 231.623135 271.878073 
L 227.350811 269.605467 
L 222.907058 266.973739 
L 218.415292 264.011245 
L 214.702901 261.310925 
L 210.938353 258.316292 
L 207.39379 255.235142 
L 204.064161 252.082225 
L 200.943536 248.871033 
L 197.465612 244.957174 
L 194.267112 240.994839 
L 191.335335 236.999509 
L 188.457272 232.668578 
L 185.836891 228.288058 
L 183.665145 224.26292 
L 181.401431 219.575799 
L 179.41149 214.904982 
L 177.677649 210.252587 
L 176.188325 205.628603 
L 174.927047 201.025887 
L 173.883746 196.445875 
L 172.988776 191.515733 
L 172.337577 186.687881 
L 171.882126 181.52362 
L 171.672649 176.360407 
L 171.708068 171.1998 
L 171.98886 166.034466 
L 172.518075 160.857204 
L 173.302599 155.661471 
L 174.306101 150.642558 
L 175.497238 145.851036 
L 176.865539 141.237033 
L 178.469031 136.599239 
L 180.321767 131.939034 
L 182.120039 127.929247 
L 184.478298 123.238159 
L 186.962052 118.82913 
L 189.663005 114.518693 
L 192.437418 110.509545 
L 195.470667 106.525174 
L 198.775728 102.579701 
L 202.365027 98.68952 
L 205.581762 95.503709 
L 209.010371 92.382318 
L 213.021762 89.0486 
L 216.599795 86.335408 
L 220.617999 83.552459 
L 224.939236 80.843252 
L 229.682925 78.179742 
L 234.265584 75.891477 
L 238.554145 73.985745 
L 243.424938 72.082057 
L 247.785746 70.600443 
L 252.146251 69.320573 
L 257.378016 68.040492 
L 261.756876 67.176649 
L 266.206692 66.487429 
L 271.035617 65.950818 
L 276.011263 65.624295 
L 281.161118 65.526101 
L 286.191603 65.665479 
L 291.370538 66.052562 
L 295.633058 66.558356 
L 300.598888 67.364029 
L 305.774753 68.457621 
L 311.024022 69.839455 
L 316.252379 71.499617 
L 321.176356 73.334774 
L 323.82843 74.437313 
L 323.82843 74.437313 
" clip-path="url(#p39155ede6f)" style="fill: none; stroke: #982d80; stroke-width: 1.5"/>
    <path d="M 279.327987 300.386746 
L 274.041383 300.219629 
L 268.825783 299.836235 
L 263.681286 299.243457 
L 258.396988 298.409209 
L 253.169852 297.354977 
L 248.064581 296.099812 
L 243.088315 294.655158 
L 238.247201 293.032513 
L 233.546426 291.24335 
L 228.990247 289.299042 
L 224.582035 287.2108 
L 220.324318 284.989611 
L 216.154814 282.607977 
L 211.302653 279.559905 
L 207.503952 276.95059 
L 203.057668 273.624067 
L 198.810325 270.145839 
L 194.797378 266.559258 
L 191.014816 262.879068 
L 187.122244 258.747465 
L 183.480227 254.516936 
L 180.400393 250.621233 
L 177.527829 246.679994 
L 174.345339 241.902406 
L 171.440859 237.084417 
L 169.225022 233.046174 
L 166.759157 228.089094 
L 164.627617 223.298869 
L 162.691256 218.408439 
L 160.984317 213.513222 
L 159.49862 208.616528 
L 158.215226 203.673368 
L 157.162338 198.827053 
L 156.299924 193.93634 
L 155.634871 189.048663 
L 155.163912 184.163605 
L 154.856085 178.466784 
L 154.80674 172.771094 
L 155.015321 167.07489 
L 155.400667 162.190829 
L 155.978562 157.304384 
L 156.752225 152.415036 
L 157.725787 147.522681 
L 159.048972 142.078191 
L 160.545945 136.915003 
L 162.190122 132.019099 
L 164.148859 126.911023 
L 166.168268 122.242615 
L 168.521706 117.368862 
L 171.197991 112.396922 
L 174.001571 107.698894 
L 177.152098 102.916313 
L 180.409391 98.422554 
L 183.683622 94.29268 
L 187.122476 90.3084 
L 191.056249 86.134647 
L 194.268372 82.993123 
L 198.249637 79.392874 
L 202.464859 75.899036 
L 206.917187 72.527326 
L 210.714631 69.8865 
L 215.534698 66.8208 
L 219.614076 64.457248 
L 223.957953 62.157706 
L 228.514771 59.971967 
L 233.142845 57.976169 
L 237.842133 56.169063 
L 242.612617 54.550489 
L 247.454276 53.121296 
L 252.367068 51.883289 
L 257.498189 50.81166 
L 262.820236 49.932954 
L 268.248424 49.27572 
L 273.772711 48.850768 
L 277.999254 48.690195 
L 279.327629 48.669131 
L 279.327629 48.669131 
" clip-path="url(#p39155ede6f)" style="fill: none; stroke: #d3436e; stroke-width: 1.5"/>
    <path d="M 234.827205 307.577325 
L 229.540526 305.63699 
L 224.216463 303.434446 
L 219.180823 301.110281 
L 214.107603 298.518138 
L 209.105756 295.700454 
L 204.175122 292.650112 
L 199.119261 289.218121 
L 194.5272 285.811091 
L 190.25992 282.372869 
L 186.319105 278.943403 
L 182.215856 275.083626 
L 178.328991 271.125863 
L 174.970157 267.438622 
L 171.281197 263.065888 
L 167.826289 258.618584 
L 164.600282 254.106969 
L 161.597743 249.540356 
L 158.78485 244.878417 
L 156.241006 240.274326 
L 153.61088 235.036864 
L 151.303051 229.930637 
L 149.374508 225.1916 
L 147.311578 219.482095 
L 145.515405 213.753451 
L 143.979365 208.010281 
L 142.696893 202.256553 
L 141.818387 197.455779 
L 140.988474 191.689769 
L 140.399936 185.919985 
L 140.050343 180.147902 
L 139.938128 174.374752 
L 140.062929 168.60163 
L 140.425149 162.829636 
L 141.02645 157.060015 
L 141.869282 151.294258 
L 142.957324 145.53431 
L 144.294965 139.7826 
L 145.887702 134.042302 
L 147.741769 128.317374 
L 149.864409 122.612865 
L 151.843977 117.879036 
L 154.02036 113.167857 
L 156.70148 107.916556 
L 159.526624 102.908304 
L 162.368151 98.30655 
L 165.429053 93.753558 
L 168.714915 89.257968 
L 172.231096 84.829346 
L 176.086426 80.36258 
L 179.974569 76.216632 
L 184.21091 72.057136 
L 188.69544 68.01393 
L 193.431066 64.102285 
L 198.111812 60.560571 
L 202.593354 57.445538 
L 206.929319 54.667669 
L 211.597886 51.918092 
L 216.635236 49.213971 
L 221.74396 46.732568 
L 226.923889 44.469559 
L 232.299593 42.376498 
L 234.827209 41.478675 
L 234.827209 41.478675 
" clip-path="url(#p39155ede6f)" style="fill: none; stroke: #f8765c; stroke-width: 1.5"/>
    <path d="M 190.326729 299.440811 
L 185.855028 296.081546 
L 181.121298 292.236958 
L 176.603112 288.261909 
L 172.134448 284.006542 
L 168.214926 279.976415 
L 163.922791 275.203986 
L 160.675244 271.310775 
L 156.845323 266.360221 
L 153.266228 261.326952 
L 149.933325 256.221278 
L 146.842027 251.052348 
L 143.987252 245.828791 
L 141.364407 240.557951 
L 138.968595 235.246685 
L 136.795296 229.90093 
L 134.840106 224.525997 
L 133.099188 219.126433 
L 131.56842 213.706504 
L 130.244822 208.269644 
L 129.125074 202.81914 
L 128.206571 197.357775 
L 127.487405 191.887985 
L 126.965514 186.412075 
L 126.639895 180.932063 
L 126.509566 175.449891 
L 126.574291 169.967409 
L 126.834186 164.486463 
L 127.289885 159.008942 
L 127.942655 153.536875 
L 128.793913 148.072417 
L 129.845687 142.617962 
L 131.100474 137.176204 
L 132.704339 131.255666 
L 134.230997 126.343344 
L 136.113542 120.959559 
L 138.367181 115.231168 
L 140.663573 109.996247 
L 143.079531 104.994814 
L 145.855851 99.754614 
L 148.866983 94.566349 
L 152.118158 89.438462 
L 154.894906 85.385406 
L 158.58978 80.38918 
L 162.5376 75.480875 
L 166.742457 70.672167 
L 170.868347 66.319199 
L 174.970673 62.309384 
L 179.824575 57.928141 
L 184.060433 54.395661 
L 188.997964 50.586809 
L 190.326453 49.61529 
L 190.326453 49.61529 
" clip-path="url(#p39155ede6f)" style="fill: none; stroke: #febb81; stroke-width: 1.5"/>
    <path d="M 145.82547 272.219207 
L 142.270531 267.113833 
L 139.228593 262.397497 
L 135.981522 256.941035 
L 132.853095 251.189081 
L 130.179007 245.797878 
L 127.633464 240.154317 
L 125.441281 234.785147 
L 123.263138 228.84181 
L 121.325575 222.863777 
L 119.625571 216.85618 
L 118.159655 210.823969 
L 116.925176 204.77145 
L 115.919756 198.702598 
L 115.141298 192.621092 
L 114.588626 186.530285 
L 114.260199 180.433459 
L 114.155525 174.333689 
L 114.274445 168.234015 
L 114.617139 162.137481 
L 115.184131 156.047164 
L 115.977008 149.966362 
L 116.996968 143.898441 
L 118.246116 137.847094 
L 119.72685 131.816313 
L 121.441917 125.810461 
L 123.394674 119.834464 
L 125.588308 113.89355 
L 128.026602 107.993662 
L 130.713527 102.141375 
L 133.653118 96.343898 
L 136.620527 91.002252 
L 139.594605 86.072718 
L 143.264038 80.473963 
L 145.825615 76.836659 
L 145.825615 76.836659 
" clip-path="url(#p39155ede6f)" style="fill: none; stroke: #fcfdbf; stroke-width: 1.5"/>
   </g>
   <g id="line2d_10">
    <path d="M 220.679218 55.378578 
" clip-path="url(#p39155ede6f)" style="fill: none; stroke: #00e88f; stroke-width: 2; stroke-linecap: square"/>
    <defs>
     <path id="md09e4655d1" d="M 0 5 
C 1.326016 5 2.597899 4.473168 3.535534 3.535534 
C 4.473168 2.597899 5 1.326016 5 0 
C 5 -1.326016 4.473168 -2.597899 3.535534 -3.535534 
C 2.597899 -4.473168 1.326016 -5 0 -5 
C -1.326016 -5 -2.597899 -4.473168 -3.535534 -3.535534 
C -4.473168 -2.597899 -5 -1.326016 -5 0 
C -5 1.326016 -4.473168 2.597899 -3.535534 3.535534 
C -2.597899 4.473168 -1.326016 5 0 5 
z
" style="stroke: #00e88f"/>
    </defs>
    <g clip-path="url(#p39155ede6f)">
     <use xlink:href="#md09e4655d1" x="220.679218" y="55.378578" style="fill: #00e88f; stroke: #00e88f"/>
    </g>
   </g>
   <g id="line2d_11">
    <path d="M 220.679218 55.378578 
L 287.581047 110.159887 
L 295.218941 145.06016 
L 292.290411 159.346138 
L 289.050172 165.894606 
L 286.577043 169.285862 
L 284.807138 171.20202 
L 283.561651 172.353534 
L 282.689496 173.076653 
L 282.079584 173.545282 
L 281.653149 173.855901 
L 281.354953 174.065116 
L 281.146386 174.207644 
L 281.000478 174.305528 
L 280.898389 174.373135 
L 280.82695 174.420016 
L 280.776954 174.452617 
L 280.741962 174.475333 
L 280.717471 174.491182 
L 280.700329 174.502252 
L 280.68833 174.509988 
" clip-path="url(#p39155ede6f)" style="fill: none; stroke: #00e88f; stroke-width: 2; stroke-linecap: square"/>
    <defs>
     <path id="m5060f15a32" d="M 0 2.5 
C 0.663008 2.5 1.29895 2.236584 1.767767 1.767767 
C 2.236584 1.29895 2.5 0.663008 2.5 0 
C 2.5 -0.663008 2.236584 -1.29895 1.767767 -1.767767 
C 1.29895 -2.236584 0.663008 -2.5 0 -2.5 
C -0.663008 -2.5 -1.29895 -2.236584 -1.767767 -1.767767 
C -2.236584 -1.29895 -2.5 -0.663008 -2.5 0 
C -2.5 0.663008 -2.236584 1.29895 -1.767767 1.767767 
C -1.29895 2.236584 -0.663008 2.5 0 2.5 
z
" style="stroke: #00e88f"/>
    </defs>
    <g clip-path="url(#p39155ede6f)">
     <use xlink:href="#m5060f15a32" x="220.679218" y="55.378578" style="fill: #00e88f; stroke: #00e88f"/>
     <use xlink:href="#m5060f15a32" x="287.581047" y="110.159887" style="fill: #00e88f; stroke: #00e88f"/>
     <use xlink:href="#m5060f15a32" x="295.218941" y="145.06016" style="fill: #00e88f; stroke: #00e88f"/>
     <use xlink:href="#m5060f15a32" x="292.290411" y="159.346138" style="fill: #00e88f; stroke: #00e88f"/>
     <use xlink:href="#m5060f15a32" x="289.050172" y="165.894606" style="fill: #00e88f; stroke: #00e88f"/>
     <use xlink:href="#m5060f15a32" x="286.577043" y="169.285862" style="fill: #00e88f; stroke: #00e88f"/>
     <use xlink:href="#m5060f15a32" x="284.807138" y="171.20202" style="fill: #00e88f; stroke: #00e88f"/>
     <use xlink:href="#m5060f15a32" x="283.561651" y="172.353534" style="fill: #00e88f; stroke: #00e88f"/>
     <use xlink:href="#m5060f15a32" x="282.689496" y="173.076653" style="fill: #00e88f; stroke: #00e88f"/>
     <use xlink:href="#m5060f15a32" x="282.079584" y="173.545282" style="fill: #00e88f; stroke: #00e88f"/>
     <use xlink:href="#m5060f15a32" x="281.653149" y="173.855901" style="fill: #00e88f; stroke: #00e88f"/>
     <use xlink:href="#m5060f15a32" x="281.354953" y="174.065116" style="fill: #00e88f; stroke: #00e88f"/>
     <use xlink:href="#m5060f15a32" x="281.146386" y="174.207644" style="fill: #00e88f; stroke: #00e88f"/>
     <use xlink:href="#m5060f15a32" x="281.000478" y="174.305528" style="fill: #00e88f; stroke: #00e88f"/>
     <use xlink:href="#m5060f15a32" x="280.898389" y="174.373135" style="fill: #00e88f; stroke: #00e88f"/>
     <use xlink:href="#m5060f15a32" x="280.82695" y="174.420016" style="fill: #00e88f; stroke: #00e88f"/>
     <use xlink:href="#m5060f15a32" x="280.776954" y="174.452617" style="fill: #00e88f; stroke: #00e88f"/>
     <use xlink:href="#m5060f15a32" x="280.741962" y="174.475333" style="fill: #00e88f; stroke: #00e88f"/>
     <use xlink:href="#m5060f15a32" x="280.717471" y="174.491182" style="fill: #00e88f; stroke: #00e88f"/>
     <use xlink:href="#m5060f15a32" x="280.700329" y="174.502252" style="fill: #00e88f; stroke: #00e88f"/>
     <use xlink:href="#m5060f15a32" x="280.68833" y="174.509988" style="fill: #00e88f; stroke: #00e88f"/>
    </g>
   </g>
   <g id="patch_3">
    <path d="M 369.216 174.528 
C 369.216 157.055246 365.774248 139.752393 359.087715 123.609673 
C 352.401182 107.466954 342.599903 92.798303 330.2448 80.4432 
C 317.889697 68.088097 303.221046 58.286818 287.078327 51.600285 
C 270.935607 44.913752 253.632754 41.472 236.16 41.472 
C 218.687246 41.472 201.384393 44.913752 185.241673 51.600285 
C 169.098954 58.286818 154.430303 68.088097 142.0752 80.4432 
C 129.720097 92.798303 119.918818 107.466954 113.232285 123.609673 
C 106.545752 139.752393 103.104 157.055246 103.104 174.528 
C 103.104 192.000754 106.545752 209.303607 113.232285 225.446327 
C 119.918818 241.589046 129.720097 256.257697 142.0752 268.6128 
C 154.430303 280.967903 169.098954 290.769182 185.241673 297.455715 
C 201.384393 304.142248 218.687246 307.584 236.16 307.584 
C 253.632754 307.584 270.935607 304.142248 287.078327 297.455715 
C 303.221046 290.769182 317.889697 280.967903 330.2448 268.6128 
C 342.599903 256.257697 352.401182 241.589046 359.087715 225.446327 
C 365.774248 209.303607 369.216 192.000754 369.216 174.528 
" style="fill: none; stroke: #000000; stroke-width: 0.8; stroke-linejoin: miter; stroke-linecap: square"/>
   </g>
   <g id="text_5">
    <!-- $r$ -->
    <g transform="translate(375.326785 -71.084493) scale(0.12 -0.12)">
     <defs>
      <path id="CMMI12-72" d="M 2490 2612 
C 2291 2574 2189 2433 2189 2293 
C 2189 2139 2310 2088 2400 2088 
C 2579 2088 2726 2242 2726 2433 
C 2726 2638 2528 2816 2208 2816 
C 1952 2816 1658 2701 1389 2312 
C 1344 2650 1088 2816 832 2816 
C 582 2816 454 2625 378 2484 
C 269 2254 173 1871 173 1839 
C 173 1814 198 1782 243 1782 
C 294 1782 301 1788 339 1935 
C 435 2318 557 2689 813 2689 
C 966 2689 1011 2580 1011 2395 
C 1011 2254 947 2005 902 1807 
L 723 1118 
C 698 996 627 709 595 594 
C 550 428 480 128 480 96 
C 480 6 550 -64 646 -64 
C 717 -64 838 -19 877 109 
C 896 160 1133 1124 1171 1271 
C 1203 1411 1242 1546 1274 1686 
C 1299 1775 1325 1878 1344 1961 
C 1363 2018 1536 2331 1696 2472 
C 1773 2542 1939 2689 2202 2689 
C 2304 2689 2406 2670 2490 2612 
z
" transform="scale(0.015625)"/>
     </defs>
     <use xlink:href="#CMMI12-72" transform="scale(0.996264)"/>
    </g>
   </g>
  </g>
 </g>
 <defs>
  <clipPath id="p39155ede6f">
   <path d="M 369.216 174.528 
C 369.216 157.055246 365.774248 139.752393 359.087715 123.609673 
C 352.401182 107.466954 342.599903 92.798303 330.2448 80.4432 
C 317.889697 68.088097 303.221046 58.286818 287.078327 51.600285 
C 270.935607 44.913752 253.632754 41.472 236.16 41.472 
C 218.687246 41.472 201.384393 44.913752 185.241673 51.600285 
C 169.098954 58.286818 154.430303 68.088097 142.0752 80.4432 
C 129.720097 92.798303 119.918818 107.466954 113.232285 123.609673 
C 106.545752 139.752393 103.104 157.055246 103.104 174.528 
C 103.104 192.000754 106.545752 209.303607 113.232285 225.446327 
C 119.918818 241.589046 129.720097 256.257697 142.0752 268.6128 
C 154.430303 280.967903 169.098954 290.769182 185.241673 297.455715 
C 201.384393 304.142248 218.687246 307.584 236.16 307.584 
C 253.632754 307.584 270.935607 304.142248 287.078327 297.455715 
C 303.221046 290.769182 317.889697 280.967903 330.2448 268.6128 
C 342.599903 256.257697 352.401182 241.589046 359.087715 225.446327 
C 365.774248 209.303607 369.216 192.000754 369.216 174.528 
M 236.16 174.528 
C 236.16 174.528 236.16 174.528 236.16 174.528 
C 236.16 174.528 236.16 174.528 236.16 174.528 
C 236.16 174.528 236.16 174.528 236.16 174.528 
C 236.16 174.528 236.16 174.528 236.16 174.528 
C 236.16 174.528 236.16 174.528 236.16 174.528 
C 236.16 174.528 236.16 174.528 236.16 174.528 
C 236.16 174.528 236.16 174.528 236.16 174.528 
C 236.16 174.528 236.16 174.528 236.16 174.528 
C 236.16 174.528 236.16 174.528 236.16 174.528 
C 236.16 174.528 236.16 174.528 236.16 174.528 
C 236.16 174.528 236.16 174.528 236.16 174.528 
C 236.16 174.528 236.16 174.528 236.16 174.528 
C 236.16 174.528 236.16 174.528 236.16 174.528 
C 236.16 174.528 236.16 174.528 236.16 174.528 
C 236.16 174.528 236.16 174.528 236.16 174.528 
C 236.16 174.528 236.16 174.528 236.16 174.528 
z
"/>
  </clipPath>
 </defs>
</svg>
